<svg width="24" height="24" viewBox="0 0 24 24" fill="none" xmlns="http://www.w3.org/2000/svg">
<path d="M14 5C14.2336 4.99954 14.46 5.08092 14.64 5.23C14.7412 5.31395 14.8249 5.41705 14.8863 5.5334C14.9476 5.64974 14.9854 5.77705 14.9975 5.90803C15.0096 6.039 14.9957 6.17107 14.9566 6.29668C14.9176 6.42228 14.8542 6.53895 14.77 6.64L10.2899 12L14.6099 17.37C14.693 17.4723 14.755 17.59 14.7925 17.7163C14.8299 17.8427 14.842 17.9752 14.8281 18.1062C14.8141 18.2372 14.7744 18.3642 14.7113 18.4798C14.6481 18.5955 14.5627 18.6975 14.4599 18.78C14.3565 18.871 14.2353 18.9397 14.1041 18.9817C13.9728 19.0237 13.8343 19.0381 13.6972 19.024C13.5601 19.0099 13.4274 18.9676 13.3074 18.8998C13.1874 18.832 13.0827 18.7402 12.9999 18.63L8.16995 12.63C8.02287 12.4511 7.94246 12.2266 7.94246 11.995C7.94246 11.7634 8.02287 11.5389 8.16995 11.36L13.17 5.36C13.2703 5.23898 13.3977 5.14332 13.5419 5.08077C13.6861 5.01822 13.843 4.99055 14 5Z" fill="#C4C4C4"/>
</svg>
