<svg width="50" height="50" viewBox="0 0 50 50" fill="none" xmlns="http://www.w3.org/2000/svg">
<path d="M32.8328 25.2905H37.6564C38.1382 25.2905 38.5852 25.0732 38.8835 24.6948C39.1815 24.3164 39.2874 23.831 39.1747 23.3628L38.1658 19.1793C37.9953 18.476 37.3712 17.9849 36.6475 17.9849H32.8328C31.9714 17.9849 31.271 18.6853 31.271 19.5463V23.729C31.2709 24.59 31.9714 25.2905 32.8328 25.2905ZM32.7415 19.5463C32.7415 19.496 32.7825 19.4555 32.8327 19.4555H36.6474C36.6897 19.4555 36.7264 19.4843 36.7361 19.5248L37.745 23.7075C37.7518 23.7359 37.7461 23.7621 37.7281 23.7851C37.7098 23.8081 37.6858 23.8199 37.6563 23.8199H32.8327C32.7824 23.8199 32.7415 23.7793 32.7415 23.7291V19.5463Z" fill="#F2851A"/>
<path d="M47.0589 33.2059V27.8677C47.0589 26.3603 46.1839 24.9779 44.8236 24.3309L42.0883 22.4632L40.9854 17.9118C40.5662 16.1471 39.0001 14.9118 37.1839 14.9118H31.5221C30.8898 14.9118 30.3089 15.0882 29.8089 15.3897V11.75C29.8089 10 28.3898 8.57353 26.6398 8.57353H3.91182C2.16182 8.57353 0.735352 10 0.735352 11.75V31.4632C0.735352 33.0074 1.853 34.2941 3.32359 34.5735V35.7721C3.32359 37.2059 4.4927 38.375 5.92653 38.375H9.29418C10.0809 40.1691 11.875 41.4265 13.9633 41.4265C16.0442 41.4265 17.8383 40.1691 18.6324 38.375H33.8162C34.603 40.1691 36.3971 41.4265 38.4854 41.4265C40.5736 41.4265 42.3604 40.1691 43.1545 38.375H46.6618C48.0956 38.375 49.2648 37.2059 49.2648 35.7721C49.2648 34.4706 48.3015 33.3971 47.0589 33.2059ZM11.6398 10.0441H17.1104L17.1324 14.2132L15.2133 12.8603C14.7133 12.5074 14.0368 12.5 13.5295 12.8603L11.6398 14.2279V10.0441ZM8.89712 36.9044H5.92653C5.30153 36.9044 4.79418 36.3971 4.79418 35.7721V34.6397H9.15447C8.96329 35.1691 8.86035 35.7353 8.86035 36.3309C8.86035 36.5221 8.87506 36.7132 8.89712 36.9044ZM13.9633 39.9559C11.9633 39.9559 10.3309 38.3309 10.3309 36.3309C10.3309 34.3235 11.9633 32.6912 13.9633 32.6912C15.9633 32.6912 17.5883 34.3235 17.5883 36.3309C17.5883 38.3309 15.9633 39.9559 13.9633 39.9559ZM17.9559 33.1691C17.0221 31.9853 15.5809 31.2206 13.9633 31.2206C12.3456 31.2206 10.8971 31.9853 9.96329 33.1691C7.77395 33.1691 4.89425 33.1618 3.91182 33.1618C2.97065 33.1618 2.20594 32.3971 2.20594 31.4632V11.75C2.20594 10.8088 2.97065 10.0441 3.91182 10.0441H10.1692V14.2279C10.1692 14.7721 10.4706 15.2647 10.9559 15.5221C11.5039 15.7865 12.057 15.7105 12.4633 15.4118L14.3677 14.0588L16.2795 15.4118C17.27 16.11 18.5736 15.3803 18.5736 14.2279V10.0441H26.6398C27.5736 10.0441 28.3383 10.8088 28.3383 11.75V33.1618L17.9559 33.1691ZM33.4192 36.9044H19.0295C19.0515 36.7132 19.0589 36.5221 19.0589 36.3309C19.0589 35.7353 18.9559 35.1691 18.7648 34.6397H33.6765C33.4854 35.1691 33.3824 35.7353 33.3824 36.3309C33.3824 36.5221 33.3971 36.7132 33.4192 36.9044ZM38.4854 39.9559C36.4854 39.9559 34.853 38.3309 34.853 36.3309C34.853 34.3235 36.4854 32.6912 38.4854 32.6912C40.4854 32.6912 42.1104 34.3235 42.1104 36.3309C42.1104 38.3309 40.4854 39.9559 38.4854 39.9559ZM42.478 33.1618C41.5442 31.9853 40.103 31.2206 38.4854 31.2206C36.8677 31.2206 35.4265 31.9853 34.4854 33.1618H29.8089V17.4927C30.1104 16.8382 30.7574 16.3824 31.5221 16.3824H37.1839C38.3162 16.3824 39.2942 17.1544 39.5589 18.2574L40.7206 23.0809C40.7648 23.2574 40.8751 23.4118 41.0221 23.5147L44.0442 25.5809C44.0736 25.6029 44.1104 25.625 44.1545 25.6397C44.8971 25.9779 45.4118 26.6691 45.5442 27.4559H44.4633C43.228 27.4559 42.2206 28.4559 42.2206 29.6912C42.2206 30.9338 43.228 31.9338 44.4633 31.9338H45.5883V33.1618H42.478ZM45.5883 28.9265V30.4632H44.4633C44.0368 30.4632 43.6912 30.1177 43.6912 29.6912C43.6912 29.2721 44.0368 28.9265 44.4633 28.9265H45.5883ZM46.6618 36.9044H43.5515C43.5736 36.7132 43.5809 36.5221 43.5809 36.3309C43.5809 35.7353 43.478 35.1691 43.2868 34.6397H46.6618C47.2868 34.6397 47.7942 35.1471 47.7942 35.7721C47.7942 36.3971 47.2868 36.9044 46.6618 36.9044Z" fill="#F2851A"/>
<path d="M34.4952 26.6268H32.6552C32.2492 26.6268 31.9199 26.956 31.9199 27.3621C31.9199 27.7681 32.2492 28.0974 32.6552 28.0974H34.4952C34.9012 28.0974 35.2305 27.7681 35.2305 27.3621C35.2305 26.956 34.9012 26.6268 34.4952 26.6268Z" fill="#F2851A"/>
</svg>
