<svg width="50" height="50" viewBox="0 0 50 50" fill="none" xmlns="http://www.w3.org/2000/svg">
<path d="M39.7576 37.1364L32.0228 39.7045C32.0228 39.6742 32.0304 39.6439 32.0304 39.6061C32.0304 38.2652 30.9395 37.1742 29.5985 37.1742H24.0531C23.5228 37.1742 23.0152 37.0076 22.591 36.7045L16.8485 32.5682C16.1591 32.0758 15.3485 31.8106 14.5001 31.8106H11.947V33.3258H14.5001C15.0304 33.3258 15.5379 33.4924 15.9622 33.7955L21.7046 37.9318C22.394 38.4242 23.2046 38.6894 24.0531 38.6894H29.5985C30.1061 38.6894 30.5152 39.0985 30.5152 39.6061C30.5152 39.8182 30.4622 40.5076 29.8031 40.5076L22.4167 40.5227V42.0379L29.8031 42.0227C30.2955 42.0227 30.7425 41.8712 31.0985 41.6061L40.2349 38.5682C40.8258 38.3712 41.4698 38.6288 41.7576 39.1894C41.9243 39.5152 41.947 39.8864 41.8182 40.2273C41.6819 40.5682 41.4243 40.8333 41.0758 40.9621L24.0379 47.197C23.447 47.4167 22.7879 47.3561 22.2425 47.0379L15.394 43.0606C14.841 42.7348 14.2122 42.5682 13.5682 42.5682H11.9395V44.0833H13.5682C13.9395 44.0833 14.3107 44.1818 14.6364 44.3712L21.4849 48.3485C22.0455 48.6742 22.6743 48.8409 23.3107 48.8409C23.7349 48.8409 24.1591 48.7652 24.5607 48.6212L41.5985 42.3788C42.3485 42.1061 42.9395 41.5152 43.2349 40.7727C43.5228 40.0303 43.4773 39.197 43.1061 38.4848C42.4773 37.2727 41.0682 36.7045 39.7576 37.1364Z" fill="#F2851A"/>
<path d="M1.13623 30.7727H9.27259V45.6288H1.13623V47.1439H10.7877V29.2576H1.13623V30.7727Z" fill="#F2851A"/>
<path d="M5.2876 41.25H6.80275V42.6894H5.2876V41.25Z" fill="#F2851A"/>
<path d="M45.5755 9.7803C43.7649 9.7803 42.2876 11.2576 42.2876 13.0682C42.2876 13.9394 42.6361 14.7273 43.1891 15.3106C42.0679 16.4091 40.9316 17.1591 39.7876 17.553C37.424 13.8561 33.5225 11.3864 29.1664 10.8409C28.7497 9.83334 28.4316 8.74243 28.2119 7.59091C29.5982 7.20455 30.621 5.94697 30.621 4.4394C30.621 2.62879 29.1437 1.15152 27.3331 1.15152C25.5225 1.15152 24.0452 2.62879 24.0452 4.4394C24.0452 5.9394 25.0604 7.19697 26.4391 7.59091C26.2194 8.7197 25.8937 9.81061 25.4619 10.8485C21.1134 11.3939 17.2119 13.8636 14.8407 17.5606C13.6967 17.1742 12.5528 16.4167 11.4316 15.3182C11.9846 14.7273 12.3331 13.9394 12.3331 13.0758C12.3331 11.2652 10.8558 9.78788 9.0452 9.78788C7.2346 9.78788 5.75732 11.2652 5.75732 13.0758C5.75732 14.8864 7.2346 16.3636 9.0452 16.3636C9.33308 16.3636 9.61338 16.3106 9.87854 16.2424L14.7573 28.053H39.8634L44.7422 16.2424C45.0073 16.3106 45.2876 16.3636 45.5755 16.3636C47.3861 16.3636 48.8634 14.8864 48.8634 13.0758C48.8634 11.2576 47.3861 9.7803 45.5755 9.7803ZM7.2649 13.0682C7.2649 12.0909 8.06035 11.2955 9.03763 11.2955C10.0149 11.2955 10.8104 12.0909 10.8104 13.0682C10.8104 14.0455 10.0149 14.8409 9.03763 14.8409C8.06035 14.8409 7.2649 14.0455 7.2649 13.0682ZM38.174 17.8788C36.03 18.0152 33.78 16.9545 31.4543 14.697C30.8861 14 30.3937 13.2652 29.9619 12.5076C33.2725 13.1818 36.2194 15.1061 38.174 17.8788ZM25.5528 4.4394C25.5528 3.46212 26.3482 2.66667 27.3255 2.66667C28.3028 2.66667 29.0982 3.46212 29.0982 4.4394C29.0982 5.41667 28.3028 6.21212 27.3255 6.21212C26.3482 6.21212 25.5528 5.41667 25.5528 4.4394ZM24.6513 12.5076C24.227 13.2652 23.7346 13.9924 23.1588 14.697C20.8407 16.9545 18.5907 18.0152 16.4467 17.8788C18.4013 15.1061 21.3482 13.1818 24.6513 12.5076ZM38.8482 26.5303H15.7649L12.2043 17.9167C13.1134 18.5303 14.0452 18.947 14.977 19.1742C17.9922 19.9621 21.1134 18.803 24.2497 15.7424L24.3028 15.6818C25.2876 14.4773 26.0907 13.1894 26.6816 11.8409C26.9164 11.3182 27.121 10.7727 27.3104 10.2197C27.4922 10.7803 27.6967 11.3182 27.9316 11.8333C28.5225 13.1818 29.3255 14.4773 30.3104 15.6742L30.3634 15.7348C33.4997 18.7955 36.621 19.947 39.621 19.1667C40.5603 18.9394 41.4922 18.5152 42.4013 17.9015L38.8482 26.5303ZM45.5755 14.8409C44.5982 14.8409 43.8028 14.0455 43.8028 13.0682C43.8028 12.0909 44.5982 11.2955 45.5755 11.2955C46.5528 11.2955 47.3482 12.0909 47.3482 13.0682C47.3482 14.0455 46.5528 14.8409 45.5755 14.8409Z" fill="#F2851A"/>
<path d="M27.3104 16.3636C25.5907 16.3636 24.1968 17.7576 24.1968 19.4773V21.5303C24.1968 23.25 25.5907 24.6439 27.3104 24.6439C29.0301 24.6439 30.424 23.25 30.424 21.5303V19.4773C30.424 17.7576 29.0301 16.3636 27.3104 16.3636ZM28.9089 21.5227C28.9089 22.4015 28.1892 23.1212 27.3104 23.1212C26.4316 23.1212 25.7119 22.4015 25.7119 21.5227V19.4697C25.7119 18.5909 26.4316 17.8712 27.3104 17.8712C28.1892 17.8712 28.9089 18.5909 28.9089 19.4697V21.5227Z" fill="#F2851A"/>
</svg>
