<svg width="24" height="24" viewBox="0 0 24 24" fill="none" xmlns="http://www.w3.org/2000/svg">
<path d="M9.99981 19C9.76615 19.0005 9.53972 18.9191 9.35981 18.77C9.25855 18.6861 9.17485 18.5829 9.11349 18.4666C9.05214 18.3503 9.01435 18.2229 9.00227 18.092C8.99019 17.961 9.00408 17.8289 9.04312 17.7033C9.08217 17.5777 9.1456 17.461 9.22981 17.36L13.7098 12L9.38981 6.63C9.30674 6.52771 9.24471 6.41002 9.20728 6.28368C9.16985 6.15734 9.15775 6.02485 9.17169 5.89382C9.18563 5.76279 9.22533 5.63581 9.2885 5.52017C9.35168 5.40453 9.43708 5.30252 9.53981 5.22C9.64327 5.12896 9.76444 5.0603 9.8957 5.01831C10.027 4.97632 10.1655 4.96191 10.3026 4.976C10.4397 4.99008 10.5724 5.03235 10.6924 5.10016C10.8123 5.16796 10.917 5.25983 10.9998 5.37L15.8298 11.37C15.9769 11.5489 16.0573 11.7734 16.0573 12.005C16.0573 12.2366 15.9769 12.4611 15.8298 12.64L10.8298 18.64C10.7295 18.761 10.6021 18.8567 10.4578 18.9192C10.3136 18.9818 10.1567 19.0095 9.99981 19Z" fill="#C4C4C4"/>
</svg>
