<svg width="24" height="24" viewBox="0 0 24 24" fill="none" xmlns="http://www.w3.org/2000/svg">
<path d="M14.0002 5C14.2338 4.99954 14.4603 5.08092 14.6402 5.23C14.7415 5.31395 14.8252 5.41705 14.8865 5.5334C14.9479 5.64974 14.9857 5.77705 14.9977 5.90803C15.0098 6.039 14.9959 6.17108 14.9569 6.29668C14.9178 6.42228 14.8544 6.53895 14.7702 6.64L10.2902 12L14.6102 17.37C14.6933 17.4723 14.7553 17.59 14.7927 17.7163C14.8302 17.8427 14.8422 17.9752 14.8283 18.1062C14.8144 18.2372 14.7747 18.3642 14.7115 18.4798C14.6483 18.5955 14.5629 18.6975 14.4602 18.78C14.3567 18.871 14.2356 18.9397 14.1043 18.9817C13.973 19.0237 13.8345 19.0381 13.6974 19.024C13.5603 19.0099 13.4276 18.9676 13.3076 18.8998C13.1877 18.832 13.083 18.7402 13.0002 18.63L8.17019 12.63C8.02311 12.4511 7.94271 12.2266 7.94271 11.995C7.94271 11.7634 8.02311 11.5389 8.17019 11.36L13.1702 5.36C13.2705 5.23898 13.3979 5.14332 13.5422 5.08077C13.6864 5.01822 13.8433 4.99055 14.0002 5Z" fill="#C4C4C4"/>
</svg>
