<svg width="49" height="49" viewBox="0 0 49 49" fill="none" xmlns="http://www.w3.org/2000/svg">
<path d="M44.3032 0.742432H27.0605C25.3435 0.742432 23.9467 2.13923 23.9467 3.85631V13.1422C23.9467 14.6137 24.9723 15.85 26.3461 16.1737V19.4313C26.3461 19.6874 26.4829 19.9239 26.7054 20.0509C26.8149 20.1144 26.9377 20.1458 27.0605 20.1458C27.1854 20.1458 27.3103 20.1129 27.4213 20.0481L33.8989 16.2566H42.1752V33.1812H7.11287C6.71797 33.1812 6.39843 33.5007 6.39843 33.8956C6.39843 34.2905 6.71797 34.61 7.11287 34.61H42.1752V36.6341C42.1752 37.9395 41.1133 39.0015 39.8078 39.0015H5.37901C4.07361 39.0015 3.01097 37.9396 3.01097 36.6341V12.1124C3.01097 10.807 4.07361 9.74507 5.37901 9.74507H19.138C19.5329 9.74507 19.8524 9.42553 19.8524 9.03063C19.8524 8.63574 19.5329 8.3162 19.138 8.3162H5.37901C3.28515 8.3162 1.58203 10.0193 1.58203 12.1124V36.6343C1.58203 38.7275 3.28515 40.4306 5.37901 40.4306H16.7992V43.2996H15.357C13.6714 43.2996 12.2997 44.6706 12.2997 46.3563V47.5431C12.2997 47.938 12.6192 48.2576 13.0141 48.2576H32.172C32.5669 48.2576 32.8864 47.938 32.8864 47.5431V46.3563C32.8864 44.6706 31.5147 43.2996 29.829 43.2996H28.3876V42.4895C28.3876 42.0946 28.068 41.7751 27.6731 41.7751C27.2782 41.7751 26.9587 42.0946 26.9587 42.4895V43.2996H18.2281V40.4306H39.8078C41.9009 40.4306 43.6041 38.7275 43.6041 36.6343V16.2569H44.3032C46.0203 16.2569 47.4178 14.8593 47.4178 13.1423V3.85631C47.4178 2.13923 46.0203 0.742432 44.3032 0.742432ZM31.4576 46.3563V46.8286H13.7286V46.3563C13.7286 45.459 14.4591 44.7285 15.357 44.7285H29.829C30.727 44.7285 31.4576 45.459 31.4576 46.3563ZM45.9889 13.1423C45.9889 14.0716 45.2326 14.8279 44.3032 14.8279H33.7049C33.5779 14.8279 33.4537 14.8614 33.3441 14.9256L27.775 18.1854V15.5424C27.775 15.1475 27.4554 14.828 27.0605 14.828C26.1312 14.828 25.3755 14.0717 25.3755 13.1423V3.85631C25.3755 2.92694 26.1312 2.1713 27.0605 2.1713H44.3032C45.2326 2.1713 45.9889 2.92694 45.9889 3.85631V13.1423Z" fill="#F2851A"/>
<path d="M30.0494 5.93272C28.7537 5.93272 27.7002 6.9863 27.7002 8.2819C27.7002 9.57684 28.7538 10.6304 30.0494 10.6304C31.3443 10.6304 32.3979 9.57684 32.3979 8.2819C32.3979 6.9863 31.3443 5.93272 30.0494 5.93272ZM30.0494 9.20154C29.5422 9.20154 29.1291 8.7892 29.1291 8.28198C29.1291 7.77475 29.5422 7.36167 30.0494 7.36167C30.5566 7.36167 30.9689 7.77468 30.9689 8.28198C30.9689 8.7892 30.5566 9.20154 30.0494 9.20154Z" fill="#F2851A"/>
<path d="M35.6822 5.93272C34.3865 5.93272 33.333 6.9863 33.333 8.2819C33.333 9.57684 34.3866 10.6304 35.6822 10.6304C36.9771 10.6304 38.0307 9.57684 38.0307 8.2819C38.0307 6.9863 36.9771 5.93272 35.6822 5.93272ZM35.6822 9.20154C35.175 9.20154 34.7619 8.7892 34.7619 8.28198C34.7619 7.77475 35.175 7.36167 35.6822 7.36167C36.1894 7.36167 36.6018 7.77468 36.6018 8.28198C36.6018 8.7892 36.1894 9.20154 35.6822 9.20154Z" fill="#F2851A"/>
<path d="M41.3148 5.93272C40.0199 5.93272 38.9663 6.9863 38.9663 8.2819C38.9663 9.57684 40.0199 10.6304 41.3148 10.6304C42.6105 10.6304 43.664 9.57684 43.664 8.2819C43.6641 6.9863 42.6105 5.93272 41.3148 5.93272ZM41.3148 9.20154C40.8076 9.20154 40.3953 8.7892 40.3953 8.28198C40.3953 7.77475 40.8076 7.36167 41.3148 7.36167C41.822 7.36167 42.2351 7.77468 42.2351 8.28198C42.2351 8.7892 41.822 9.20154 41.3148 9.20154Z" fill="#F2851A"/>
<path d="M24.7914 37.5204C25.1863 37.5204 25.5059 37.2009 25.5059 36.806C25.5059 36.4111 25.1863 36.0916 24.7914 36.0916H20.3951C20.0002 36.0916 19.6807 36.4111 19.6807 36.806C19.6807 37.2009 20.0002 37.5204 20.3951 37.5204H24.7914Z" fill="#F2851A"/>
</svg>
