<svg width="42" height="42" viewBox="0 0 42 42" fill="none" xmlns="http://www.w3.org/2000/svg">
<path d="M38.6615 9.82556H31.2682C33.539 8.22276 34.0573 5.17022 32.59 2.92027C31.0529 0.563458 27.918 -0.0803589 25.5735 1.44409C24.6224 2.06173 23.5971 3.65528 22.5038 6.14441C22.0282 5.97763 21.5218 5.88498 20.9968 5.88498C20.4718 5.88498 19.9653 5.97763 19.4897 6.14441C18.3965 3.66764 17.3712 2.06173 16.4262 1.44409C14.0589 -0.0868998 10.9405 0.57313 9.40971 2.92027C7.92859 5.19133 8.46673 8.23136 10.7253 9.82556H3.33823C1.83735 9.82556 0.620605 11.0485 0.620605 12.5432V16.7803C0.620605 18.2811 1.83735 19.4979 3.33823 19.4979H3.54825V35.0009C3.54825 38.5215 6.40795 41.3812 9.92855 41.3812H32.0712C35.5856 41.3812 38.4515 38.5215 38.4515 35.0009V19.4979H38.6615C40.1562 19.4979 41.3791 18.2812 41.3791 16.7803V12.5432C41.3791 11.0485 40.1562 9.82556 38.6615 9.82556ZM26.2468 2.48176C28.0685 1.30185 30.4267 1.86256 31.5585 3.59352C32.7316 5.40527 32.1962 7.75596 30.4406 8.90528C29.718 9.37469 27.9762 9.62791 25.5612 9.62791C25.3141 8.41735 24.5977 7.37352 23.6094 6.69409C24.5853 4.46439 25.518 2.95733 26.2468 2.48176ZM20.9968 7.12026C22.6274 7.12026 24.0109 8.28762 24.3444 9.82556H17.6491C17.9888 8.28762 19.3724 7.12026 20.9968 7.12026ZM25.2709 11.0609V18.2626H16.7288V11.0609H25.2709ZM10.4412 3.59352C11.626 1.78372 14.0149 1.34385 15.753 2.48176C16.4756 2.95733 17.4144 4.47057 18.3903 6.70027C17.4021 7.37352 16.6856 8.41735 16.4385 9.62177C14.0297 9.62177 12.2756 9.37469 11.553 8.90528C9.76741 7.72788 9.28731 5.35608 10.4412 3.59352ZM3.33823 18.2626C2.52293 18.2626 1.8559 17.5956 1.8559 16.7803V12.5432C1.8559 11.7279 2.52293 11.0609 3.33823 11.0609H15.4935V18.2626H3.33823ZM37.2162 35.0009C37.2162 37.8421 34.9062 40.1459 32.0712 40.1459H9.92855C7.09353 40.1459 4.78353 37.8421 4.78353 35.0009V19.4979H37.2162V35.0009ZM40.1438 16.7803C40.1438 17.5956 39.4768 18.2626 38.6615 18.2626H26.5062V11.0609H38.6615C39.4768 11.0609 40.1438 11.7279 40.1438 12.5432V16.7803H40.1438Z" fill="#F2851A"/>
<path d="M20.9964 24.2133C20.0847 23.4264 17.3421 21.5147 14.5027 23.9759C13.3916 24.9419 12.904 26.4501 13.1296 28.2228C13.5421 31.464 16.1201 34.8698 19.3992 36.505C19.9068 36.758 20.4514 36.8847 20.9967 36.8847C21.5411 36.8847 22.0854 36.7583 22.5924 36.5059H22.5927C25.8706 34.8743 28.4507 31.4706 28.8669 28.2292C29.0946 26.4543 28.6093 24.944 27.4986 23.975C24.661 21.5153 21.9099 23.4273 20.9964 24.2133ZM26.6882 24.9072C27.6988 25.789 27.7646 27.1148 27.6415 28.0717C27.3321 30.4823 25.3094 33.7738 22.0423 35.4C21.3773 35.7311 20.6149 35.7311 19.9505 35.3994C16.6822 33.7696 14.6616 30.4772 14.3549 28.0669C14.2334 27.1115 14.3009 25.7881 15.3124 24.9087C16.0821 24.2416 16.8363 23.9961 17.5294 23.9961C18.6778 23.9961 19.6589 24.6696 20.2654 25.2154C20.6813 25.5891 21.3095 25.5894 21.7265 25.2157C22.7025 24.3405 24.6456 23.1375 26.6882 24.9072Z" fill="#F2851A"/>
</svg>
