<svg width="24" height="24" viewBox="0 0 24 24" fill="none" xmlns="http://www.w3.org/2000/svg">
<g clip-path="url(#clip0_174_1894)">
<path fill-rule="evenodd" clip-rule="evenodd" d="M17.7071 7.76765C18.0976 7.37713 18.0976 6.74396 17.7071 6.35344C17.3166 5.96292 16.6834 5.96292 16.2929 6.35344L12 10.6463L7.70711 6.35344C7.31658 5.96292 6.68342 5.96292 6.29289 6.35344C5.90237 6.74397 5.90237 7.37713 6.29289 7.76765L10.5858 12.0605L6.29289 16.3534C5.90237 16.744 5.90237 17.3771 6.29289 17.7677C6.68342 18.1582 7.31658 18.1582 7.70711 17.7677L12 13.4748L16.2929 17.7677C16.6834 18.1582 17.3166 18.1582 17.7071 17.7677C18.0976 17.3771 18.0976 16.744 17.7071 16.3534L13.4142 12.0605L17.7071 7.76765Z" fill="#F2851A"/>
</g>
<defs>
<clipPath id="clip0_174_1894">
<rect width="24" height="24" fill="white"/>
</clipPath>
</defs>
</svg>
