<svg width="60" height="60" viewBox="0 0 60 60" fill="none" xmlns="http://www.w3.org/2000/svg">
<path d="M39.3993 30.3485H45.1876C45.7658 30.3485 46.3022 30.0879 46.6601 29.6337C47.0178 29.1797 47.1448 28.5971 47.0096 28.0354L45.7989 23.0152C45.5943 22.1712 44.8454 21.5818 43.9769 21.5818H39.3993C38.3657 21.5818 37.5251 22.4224 37.5251 23.4555V28.4748C37.5251 29.508 38.3657 30.3485 39.3993 30.3485ZM39.2898 23.4556C39.2898 23.3952 39.3389 23.3466 39.3992 23.3466H43.9768C44.0276 23.3466 44.0716 23.3811 44.0832 23.4297L45.2939 28.449C45.3021 28.4831 45.2952 28.5145 45.2737 28.5421C45.2517 28.5697 45.2229 28.5839 45.1875 28.5839H39.3992C39.3388 28.5839 39.2898 28.5352 39.2898 28.4749V23.4556Z" fill="#F2851A"/>
<path d="M56.4706 39.8471V33.4412C56.4706 31.6324 55.4206 29.9735 53.7882 29.1971L50.5059 26.9559L49.1823 21.4941C48.6794 19.3765 46.8 17.8941 44.6206 17.8941H37.8264C37.0676 17.8941 36.3706 18.1059 35.7706 18.4677V14.1C35.7706 12 34.0676 10.2882 31.9676 10.2882H4.69409C2.59409 10.2882 0.882324 12 0.882324 14.1V37.7559C0.882324 39.6088 2.2235 41.1529 3.98821 41.4882V42.9265C3.98821 44.6471 5.39115 46.05 7.11174 46.05H11.1529C12.0969 48.2029 14.2499 49.7118 16.7559 49.7118C19.2529 49.7118 21.4059 48.2029 22.3588 46.05H40.5794C41.5235 48.2029 43.6764 49.7118 46.1823 49.7118C48.6882 49.7118 50.8323 48.2029 51.7853 46.05H55.9941C57.7147 46.05 59.1176 44.6471 59.1176 42.9265C59.1176 41.3647 57.9617 40.0765 56.4706 39.8471ZM13.9676 12.0529H20.5323L20.5588 17.0559L18.2559 15.4324C17.6559 15.0088 16.8441 15 16.2353 15.4324L13.9676 17.0735V12.0529ZM10.6764 44.2853H7.11174C6.36174 44.2853 5.75291 43.6765 5.75291 42.9265V41.5677H10.9853C10.7559 42.2029 10.6323 42.8824 10.6323 43.5971C10.6323 43.8265 10.65 44.0559 10.6764 44.2853ZM16.7559 47.9471C14.3559 47.9471 12.397 45.9971 12.397 43.5971C12.397 41.1882 14.3559 39.2294 16.7559 39.2294C19.1559 39.2294 21.1059 41.1882 21.1059 43.5971C21.1059 45.9971 19.1559 47.9471 16.7559 47.9471ZM21.547 39.8029C20.4264 38.3824 18.697 37.4647 16.7559 37.4647C14.8147 37.4647 13.0764 38.3824 11.9559 39.8029C9.32865 39.8029 5.873 39.7941 4.69409 39.7941C3.56468 39.7941 2.64703 38.8765 2.64703 37.7559V14.1C2.64703 12.9706 3.56468 12.0529 4.69409 12.0529H12.2029V17.0735C12.2029 17.7265 12.5647 18.3177 13.147 18.6265C13.8046 18.9439 14.4683 18.8526 14.9559 18.4941L17.2411 16.8706L19.5353 18.4941C20.7239 19.332 22.2882 18.4564 22.2882 17.0735V12.0529H31.9676C33.0882 12.0529 34.0059 12.9706 34.0059 14.1V39.7941L21.547 39.8029ZM40.1029 44.2853H22.8353C22.8617 44.0559 22.8706 43.8265 22.8706 43.5971C22.8706 42.8824 22.747 42.2029 22.5176 41.5677H40.4117C40.1823 42.2029 40.0588 42.8824 40.0588 43.5971C40.0588 43.8265 40.0764 44.0559 40.1029 44.2853ZM46.1823 47.9471C43.7823 47.9471 41.8235 45.9971 41.8235 43.5971C41.8235 41.1882 43.7823 39.2294 46.1823 39.2294C48.5823 39.2294 50.5323 41.1882 50.5323 43.5971C50.5323 45.9971 48.5823 47.9471 46.1823 47.9471ZM50.9735 39.7941C49.8529 38.3824 48.1235 37.4647 46.1823 37.4647C44.2411 37.4647 42.5117 38.3824 41.3823 39.7941H35.7706V20.9912C36.1323 20.2059 36.9088 19.6588 37.8264 19.6588H44.6206C45.9794 19.6588 47.1529 20.5853 47.4706 21.9088L48.8647 27.6971C48.9176 27.9089 49.05 28.0941 49.2264 28.2176L52.8529 30.6971C52.8882 30.7235 52.9323 30.75 52.9853 30.7676C53.8764 31.1735 54.4941 32.0029 54.6529 32.9471H53.3559C51.8735 32.9471 50.6647 34.1471 50.6647 35.6294C50.6647 37.1206 51.8735 38.3206 53.3559 38.3206H54.7058V39.7941H50.9735ZM54.7058 34.7118V36.5559H53.3559C52.8441 36.5559 52.4294 36.1412 52.4294 35.6294C52.4294 35.1265 52.8441 34.7118 53.3559 34.7118H54.7058ZM55.9941 44.2853H52.2617C52.2882 44.0559 52.297 43.8265 52.297 43.5971C52.297 42.8824 52.1735 42.2029 51.9441 41.5677H55.9941C56.7441 41.5677 57.3529 42.1765 57.3529 42.9265C57.3529 43.6765 56.7441 44.2853 55.9941 44.2853Z" fill="#F2851A"/>
<path d="M41.3944 31.9521H39.1864C38.6992 31.9521 38.3041 32.3472 38.3041 32.8345C38.3041 33.3217 38.6992 33.7168 39.1864 33.7168H41.3944C41.8817 33.7168 42.2768 33.3217 42.2768 32.8345C42.2768 32.3472 41.8817 31.9521 41.3944 31.9521Z" fill="#F2851A"/>
</svg>
