<svg width="30" height="30" viewBox="0 0 30 30" fill="none" xmlns="http://www.w3.org/2000/svg">
<path fill-rule="evenodd" clip-rule="evenodd" d="M15 30C23.2843 30 30 23.2843 30 15C30 6.71572 23.2843 0 15 0C6.71572 0 0 6.71572 0 15C0 23.2843 6.71572 30 15 30Z" fill="#F2851A"/>
<path fill-rule="evenodd" clip-rule="evenodd" d="M15.916 21V15.3182H17.6948L17.9611 13.2857H15.916V11.9344C15.916 11.3365 16.082 10.929 16.9395 10.929L18 10.9285V9.08137C17.8108 9.05625 17.1947 9 16.4395 9C14.8628 9 13.7833 9.9624 13.7833 11.7299V13.2857H12V15.3182H13.7833V21H15.916Z" fill="#FBFBFB"/>
</svg>
