<svg width="20" height="20" viewBox="0 0 20 20" fill="none" xmlns="http://www.w3.org/2000/svg">
<path d="M10.7644 2.16846C10.6323 1.86381 10.3319 1.66667 9.99987 1.66667C9.66781 1.66667 9.36745 1.86381 9.23533 2.16846L7.29956 6.63227L2.42344 7.08137C2.0914 7.11195 1.80956 7.33752 1.70696 7.65479C1.60437 7.97206 1.70078 8.31995 1.95205 8.53915L5.62707 11.7452L4.55195 16.4822C4.47834 16.8066 4.60463 17.1436 4.87326 17.3397C5.14189 17.5358 5.5014 17.5534 5.78789 17.3845L9.99987 14.9009L14.2119 17.3845C14.4983 17.5534 14.8579 17.5358 15.1265 17.3397C15.3951 17.1436 15.5214 16.8066 15.4478 16.4822L14.3727 11.7452L18.0477 8.53915C18.299 8.31995 18.3954 7.97206 18.2928 7.65479C18.1902 7.33752 17.9083 7.11195 17.5763 7.08137L12.7002 6.63227L10.7644 2.16846Z" fill="#FF9D3F"/>
</svg>
