<svg width="16" height="16" viewBox="0 0 16 16" fill="none" xmlns="http://www.w3.org/2000/svg">
<path fill-rule="evenodd" clip-rule="evenodd" d="M1.3335 1.99999C1.3335 1.63181 1.63197 1.33333 2.00016 1.33333H14.0002C14.3684 1.33333 14.6668 1.63181 14.6668 1.99999V4.66666C14.6668 4.9059 14.5386 5.1268 14.3309 5.24549L10.0002 7.72021V14.6667C10.0002 14.8977 9.88053 15.1123 9.68398 15.2338C9.48744 15.3552 9.24201 15.3663 9.03535 15.2629L6.73721 14.1139C6.2855 13.888 6.00016 13.4263 6.00016 12.9213V7.72021L1.6694 5.24549C1.46169 5.1268 1.3335 4.9059 1.3335 4.66666V1.99999ZM2.66683 2.66666V4.27978L6.99759 6.7545C7.20531 6.87319 7.3335 7.09409 7.3335 7.33333V12.9213L8.66683 13.588V7.33333C8.66683 7.09409 8.79502 6.87319 9.00274 6.7545L13.3335 4.27978V2.66666H2.66683Z" fill="#323232"/>
</svg>
