<svg width="190" height="47" viewBox="0 0 190 47" fill="none" xmlns="http://www.w3.org/2000/svg">
<path d="M37.9509 27.2934C37.7638 26.7919 37.5915 26.2974 37.2487 25.8801C37.1161 25.7187 36.9325 25.5645 36.8831 25.353C36.8223 25.0934 36.8893 24.7547 36.8887 24.4891C36.8859 23.3845 36.7314 22.2871 36.3117 21.2575C35.9282 20.3165 35.5302 19.3847 34.8592 18.6013C34.48 18.1587 34.122 17.759 33.6353 17.4335C33.5382 17.3685 33.4411 17.3002 33.3426 17.2338C33.6143 16.9378 33.7698 16.605 33.9681 16.2408C34.2625 15.6996 34.7627 15.3051 35.1051 14.8C35.4749 14.2548 35.8217 13.6405 36.1413 13.0637C36.4314 12.5402 36.7447 12.0063 37.007 11.4718C37.0832 11.3166 37.1233 11.0927 37.007 10.9412C36.6831 10.5196 36.3089 10.5736 35.832 10.6508C35.2387 10.7468 34.6231 10.862 34.0449 11.0297C33.676 11.1368 33.182 11.2247 32.7019 11.3631C32.8077 11.1683 32.9108 10.9755 33.012 10.7876C33.6309 9.63901 34.0796 8.43271 34.3123 7.14343C34.4324 6.4779 34.4816 5.80127 34.5932 5.13482C34.6713 4.66877 34.7611 4.0116 34.1826 3.82186C33.7263 3.67204 33.1676 3.88731 32.7234 3.97589C32.0536 4.10955 31.4674 4.36603 30.837 4.61801C30.8203 4.62471 30.8042 4.63205 30.7876 4.63875C30.725 3.84453 30.6883 3.03635 30.5156 2.25498C30.4272 1.85474 30.2324 1.44992 30.0757 1.06988C29.9305 0.717659 29.7486 0.385446 29.4517 0.139339C29.2853 0.00136895 29.0627 -0.0529747 28.8661 0.0637907C28.4087 0.335325 28.1092 0.761905 27.7388 1.14323C27.3306 1.56329 26.997 2.06863 26.6358 2.52789C26.2877 2.97062 25.9412 3.46633 25.6881 3.97424C25.5514 3.68673 25.4079 3.40593 25.2611 3.13411C25.0264 2.69964 24.8099 2.06624 24.3826 1.74C24.3687 1.71668 24.3555 1.69364 24.3415 1.67023C23.9624 1.03684 23.455 1.28083 23.0343 1.70218C22.5632 2.17401 22.2137 2.75509 21.9543 3.38656C21.843 3.26887 21.705 3.16808 21.5664 3.05802C21.1262 2.70799 20.7072 2.37743 20.2254 2.0813C19.3328 1.53254 18.3722 1.07319 17.4359 0.614479C17.0593 0.43006 16.7182 0.663315 16.6672 1.05547C16.6255 1.37621 16.5951 1.73137 16.5842 2.05532C16.5705 2.46152 16.6899 2.84863 16.6483 3.25685C16.58 3.92696 16.4999 4.56504 16.6361 5.20725C15.5668 4.82171 14.4407 4.6069 13.3124 4.80757C13.1625 4.83419 12.9912 4.99887 12.9684 5.15153C12.8612 5.87012 13.0324 6.71969 13.1855 7.4235C13.3585 8.21837 13.6026 8.9711 13.9158 9.72172C14.2955 10.6318 14.872 11.5001 15.5197 12.2891C15.0552 12.3941 14.5716 12.6268 14.1929 12.7098C13.7298 12.8112 13.3099 12.9765 12.8776 13.1691C12.4357 13.366 11.9673 13.5149 11.5371 13.7355C11.2867 13.864 11.2094 14.2207 11.3488 14.4537C11.604 14.8799 12.1023 15.0823 12.5398 15.2775C12.8611 15.4209 13.212 15.5354 13.5508 15.6312C13.8387 15.7126 14.0948 15.8501 14.3799 15.9318C15.0054 16.111 15.6623 16.1861 16.2875 16.3688C16.2992 16.3723 16.3112 16.3757 16.3231 16.3793C15.7222 16.6363 15.1862 16.9916 14.7071 17.4401C14.0734 18.0333 13.6894 18.7636 13.149 19.4195C12.5901 20.098 12.0591 20.8411 11.6194 21.6008C11.4252 21.9364 11.1849 22.2578 11.0343 22.6149C10.8448 23.0646 10.7588 23.5059 10.6664 23.9801C10.6139 24.2498 10.5471 24.5185 10.5052 24.7867C10.4362 25.2289 10.2271 25.6232 10.0242 26.02C9.65077 26.7504 9.43853 27.578 9.18802 28.3579C8.88913 29.2885 8.71499 30.2732 8.68351 31.2519C8.65633 32.0997 8.80642 33.0685 9.22097 33.8122C9.42926 34.1859 9.7231 34.5387 9.82114 34.962C9.93304 35.4447 9.97389 35.9796 10.045 36.4722C10.2989 38.2271 10.7006 40.3587 11.9802 41.6751C12.6136 42.3268 13.5042 42.5814 14.1382 43.2369C14.7709 43.891 15.3297 44.5129 16.136 44.9562C16.8749 45.3625 17.5907 45.8354 18.4508 45.9454C19.3948 46.0661 20.367 45.9532 21.309 46.0525C21.5169 46.0743 21.7435 46.0646 21.9449 46.1118C22.1629 46.1628 22.3524 46.307 22.554 46.4007C23.021 46.6181 23.519 46.759 24.0254 46.8451C24.5238 46.93 25.0054 47.0369 25.5107 46.987C26.0177 46.937 26.5158 46.8991 27.0184 46.8042C27.9691 46.6248 28.8985 46.2125 29.6745 45.6336C30.0335 45.3657 30.4661 45.0386 30.7457 44.6918C30.8879 44.5153 30.9694 44.3189 31.1539 44.1771C31.3247 44.0458 31.516 43.9774 31.6752 43.8226C31.6826 43.8154 31.6889 43.8078 31.6959 43.8004C31.8731 43.7041 32.0355 43.5886 32.1721 43.4374C32.5035 43.0708 32.7547 42.6 33.1385 42.2821C33.4973 41.985 33.8601 41.7975 34.1836 41.4467C34.5895 41.0061 35.0426 40.6138 35.4513 40.1766C36.2096 39.3656 36.6538 38.4336 36.8067 37.325C36.8835 36.7683 36.9209 36.2232 36.8495 35.6638C36.7708 35.0472 36.9565 34.5678 37.2016 34.0106C38.1032 31.9607 38.7661 29.4796 37.9509 27.2934ZM34.3594 19.7898C34.4805 20.0078 34.5788 20.2474 34.7099 20.4592C34.7375 20.504 34.7681 20.5758 34.8089 20.6225C34.8168 20.6582 34.8288 20.693 34.8447 20.7267C34.9857 21.205 35.2465 21.6367 35.3854 22.1187C35.5392 22.6526 35.6716 23.1399 35.7243 23.6963C35.7891 24.3799 35.681 25.0236 35.8206 25.6249C35.2046 25.7851 34.6276 26.1344 34.0881 26.4631C33.3993 26.8826 32.7609 27.3792 32.1079 27.8467C31.8927 27.5708 31.6744 27.2974 31.4417 27.036C31.0224 26.5647 30.6203 26.0182 30.3102 25.4622C29.9494 24.8156 29.7177 24.1144 29.4875 23.4107C29.4028 23.1517 29.3115 22.8977 29.2134 22.6485C30.1408 22.1988 31.0303 21.725 31.9017 21.1659C32.6923 20.6588 33.5186 20.1974 34.2863 19.6658C34.3113 19.7065 34.3361 19.7478 34.3594 19.7898ZM20.7187 28.0796C21.6578 29.7082 22.9606 31.0242 24.092 32.5073C24.2728 32.7444 24.4474 32.9883 24.6161 33.2369C23.9308 33.6516 23.2174 34.0275 22.5046 34.3921C21.6068 34.8512 20.6641 35.1712 19.7812 35.6684C19.3537 35.9092 18.9723 36.2097 18.57 36.4889C18.2901 36.6831 17.9942 36.856 17.7157 37.0524C17.5989 36.6707 17.4702 36.2932 17.2976 35.9425C16.9558 35.2475 16.4879 34.5762 16.0137 33.9653C15.4282 33.2108 14.7268 32.5299 14.0785 31.8119C15.5219 30.5169 17.0911 29.3367 18.6655 28.221C19.1638 27.8679 19.6698 27.5245 20.1818 27.1895C20.3625 27.4844 20.545 27.7785 20.7187 28.0796ZM18.6826 22.9155C18.451 22.5874 18.2164 22.2567 17.9731 21.9323C19.3932 21.2228 20.7924 20.2537 21.9826 19.2063C22.598 18.6648 23.2284 18.2325 23.9163 17.8019C24.0534 17.716 24.1864 17.6329 24.3199 17.552C24.3547 17.5867 24.3901 17.6213 24.426 17.6562C24.7558 17.9768 25.1176 18.2953 25.466 18.5975C26.1479 19.1893 26.7368 19.9401 27.2564 20.6736C27.5874 21.141 27.8675 21.6452 28.1085 22.1672C27.4993 22.4504 26.8886 22.73 26.2727 22.9977C25.373 23.3888 24.4559 23.738 23.6059 24.2322C22.5586 24.8413 21.4982 25.4578 20.4796 26.1278C19.8995 25.0451 19.3902 23.9177 18.6826 22.9155ZM23.3933 30.2644C22.7533 29.5621 22.2701 28.7614 21.6821 28.0218C21.3667 27.6251 21.0913 27.2029 20.8368 26.7677C21.6491 26.2542 22.4762 25.7636 23.3164 25.2987C24.9689 24.3846 26.7433 23.7822 28.4572 23.0043C28.4792 23.0626 28.5019 23.1207 28.5231 23.1791C28.8357 24.0402 29.0297 24.9015 29.4604 25.7112C29.9722 26.6734 30.6447 27.5407 31.3436 28.3885C30.7764 28.8248 30.271 29.3501 29.6871 29.7533C28.8914 30.3028 28.135 30.9077 27.3356 31.4544C26.6844 31.8997 26.0406 32.3331 25.3828 32.7567C25.3278 32.6739 25.2727 32.5913 25.217 32.5079C24.6772 31.7 24.0428 30.9773 23.3933 30.2644ZM27.0918 32.677C27.8798 32.1002 28.677 31.5075 29.4867 30.9633C30.1709 30.5036 30.7661 29.9583 31.4146 29.4592C31.5809 29.3312 31.7475 29.2029 31.9144 29.0747C32.1849 29.3984 32.4541 29.7224 32.7141 30.0506C33.7279 31.3301 34.3608 32.8578 35.193 34.246C34.9416 34.377 34.7014 34.5312 34.5184 34.6443C33.8252 35.0733 33.147 35.5573 32.5238 36.0933C31.8538 36.6696 31.1168 37.0783 30.3726 37.5488C29.7851 37.9201 29.2059 38.2769 28.5938 38.6062C28.4415 38.4022 28.2917 38.1954 28.1421 37.9865C27.5287 37.1294 27.1779 36.1158 26.7597 35.1571C26.5032 34.5694 26.1991 34.0332 25.8691 33.5064C26.2872 33.2419 26.6965 32.9665 27.0918 32.677ZM33.5091 18.6801C33.6358 18.8176 33.7601 18.957 33.8787 19.1007C33.2413 19.273 32.5619 19.7838 32.0471 20.0686C31.1445 20.5678 30.3031 21.1386 29.3663 21.5786C29.1947 21.6592 29.023 21.7397 28.8513 21.8203C28.4926 21.0761 28.0584 20.3747 27.5265 19.7081C27.0668 19.1318 26.5059 18.5275 25.9276 18.0726C25.6289 17.8376 25.3728 17.5536 25.0556 17.3432C25.005 17.3095 24.9471 17.2748 24.8873 17.239C24.9079 17.2289 24.9273 17.2182 24.9481 17.2083C25.4344 17.1855 25.9379 17.1032 26.4684 16.9441C26.969 16.794 27.4983 16.4271 27.9442 16.1507C28.257 15.9568 28.5704 15.7854 28.8779 15.5963C28.8914 15.5943 28.905 15.5924 28.9188 15.5897C30.344 16.7982 32.2119 17.2714 33.5091 18.6801ZM33.8718 12.1531C34.3576 12.0213 34.8374 11.9091 35.3333 11.8203C35.4624 11.7972 35.5924 11.7689 35.7224 11.743C35.2943 12.5978 34.7906 13.4404 34.2749 14.2228C33.9559 14.7067 33.5031 15.1016 33.1796 15.5884C33.0514 15.7814 33.007 16.0202 32.8841 16.2089C32.7778 16.3723 32.6125 16.5383 32.478 16.7048C32.0055 16.3894 31.5113 16.0902 30.9856 15.8922C30.6147 15.7525 30.2637 15.5737 29.8811 15.4663C29.7604 15.4324 29.6385 15.407 29.5166 15.3827C29.9665 15.2106 30.4233 15.0603 30.8835 14.9166C31.2577 14.7997 31.6281 14.7004 31.9678 14.5003C32.2786 14.3173 32.674 14.2235 32.9381 13.9736C32.9925 13.9221 33.0129 13.8381 32.9927 13.7667C32.987 13.7462 32.9812 13.7257 32.9753 13.7051C32.9539 13.6291 32.8673 13.5735 32.789 13.5994C32.5071 13.692 32.2226 13.7285 31.9491 13.8553C31.5646 14.0337 31.2092 14.202 30.8019 14.3284C30.6461 14.3766 30.4941 14.4263 30.3437 14.4773C30.5533 14.2933 30.7591 14.1048 30.9581 13.9077C31.3346 13.5344 31.6658 13.0929 31.9671 12.6255C32.09 12.5822 32.21 12.5372 32.3208 12.5107C32.8363 12.3874 33.3601 12.2919 33.8718 12.1531ZM26.4339 4.32554C26.7296 3.89851 27.0492 3.47147 27.3745 3.06683C27.6925 2.67137 27.9954 2.23497 28.348 1.87118C28.5617 1.65068 28.7883 1.36675 29.0325 1.14268C29.1313 1.30819 29.2012 1.49224 29.2607 1.67923C29.3734 2.03366 29.536 2.32685 29.5987 2.69441C29.7198 3.40482 29.7655 4.12249 29.8272 4.83869C29.8344 4.92222 29.8593 4.99382 29.8952 5.05505C28.9219 5.57095 28.0725 6.23574 27.3227 7.00849C27.3791 6.66361 27.4252 6.31726 27.4982 5.99423C27.5942 5.56911 27.7079 5.14868 27.8005 4.72229C27.8685 4.40972 27.9062 3.85564 28.0898 3.58832C28.1439 3.50956 28.0219 3.41621 27.9576 3.48625C27.7699 3.69114 27.688 4.03235 27.5858 4.28075C27.4085 4.71201 27.2883 5.16759 27.1244 5.60491C26.9634 6.03434 26.8667 6.47827 26.7303 6.91513C26.7116 6.97452 26.692 7.03437 26.6719 7.09441C26.5773 6.34057 26.3623 5.59307 26.0803 4.87559C26.208 4.70274 26.3082 4.50721 26.4339 4.32554ZM25.8992 10.7766C26.2811 9.73668 27.0105 8.83928 27.7114 7.9964C28.4113 7.15472 29.2407 6.48194 30.2094 5.96999C31.1739 5.46024 32.1671 5.07148 33.2283 4.83759C33.3744 4.80537 33.5152 4.76525 33.664 4.74753C33.6932 4.74414 33.7224 4.74074 33.7518 4.73734C33.7152 4.84566 33.6743 5.0444 33.6728 5.05707C33.6601 5.16282 33.6497 5.26554 33.6399 5.37239C33.5802 6.01772 33.5286 6.65801 33.3863 7.29195C32.9175 9.38125 31.8769 11.2872 30.5775 12.9835C29.8749 13.9008 28.7741 14.7031 27.7534 15.2224C27.2877 15.4593 26.8337 15.7382 26.3731 15.9816C26.0409 16.1571 25.5877 16.267 25.1535 16.3241C25.5378 15.8176 25.8955 15.2896 26.285 14.7866C26.5924 14.3895 26.9679 14.0758 27.277 13.6826C27.5385 13.3498 27.7625 12.9887 27.9906 12.633C28.469 11.8867 29.03 11.1851 29.555 10.4707C29.7972 10.141 30.0644 9.79452 30.2528 9.43155C30.3758 9.19435 30.5794 8.923 30.5577 8.64586C30.5442 8.47503 30.338 8.41692 30.2399 8.55985C30.1436 8.70057 29.9944 8.78723 29.8903 8.9207C29.7653 9.08098 29.6687 9.25787 29.5403 9.4176C29.2953 9.72246 29.0836 10.0481 28.8331 10.3494C28.2857 11.008 27.742 11.7043 27.28 12.4257C26.7792 13.2077 26.1303 13.8173 25.5735 14.5522C25.3262 14.8784 25.0521 15.2237 24.8143 15.5873C24.8075 15.5271 24.8002 15.4673 24.7935 15.407C24.7322 14.8489 24.8804 14.285 24.9819 13.7352C25.0751 13.23 25.1511 12.7732 25.3408 12.2958C25.4299 12.072 25.4581 11.8355 25.542 11.6103C25.6475 11.3267 25.7946 11.0613 25.8992 10.7766ZM22.074 8.34018C22.1019 7.35686 22.1558 6.34048 22.3286 5.36946C22.3295 5.36698 22.3301 5.36432 22.3309 5.36184C22.532 4.78269 22.791 4.19574 23.0694 3.65047C23.2496 3.2977 23.4588 2.76105 23.7721 2.4315C23.9762 2.78207 24.2093 3.11392 24.3636 3.49322C24.7287 4.39145 24.9424 5.34862 25.1471 6.28944C25.3285 7.12406 25.5278 7.92581 25.6513 8.76199C25.5614 8.90032 25.5389 9.08181 25.5841 9.2419C25.457 9.44202 25.3325 9.64452 25.2135 9.85171C24.8828 10.4271 24.6506 11.1091 24.4668 11.7453C24.3762 12.0582 24.2169 12.3333 24.1522 12.6568C24.0929 12.9531 24.0447 13.2555 23.9984 13.5561C23.977 13.2701 23.9413 12.9856 23.9401 12.6972C23.9382 12.256 23.9643 11.8147 23.941 11.3736C23.9204 10.9823 23.8399 10.6051 23.8619 10.2111C23.8813 9.86281 23.942 9.52261 23.9588 9.17406C23.9946 8.42922 24.2627 7.75608 24.0255 7.01739C23.9703 6.84527 23.7321 6.84582 23.6766 7.01739C23.462 7.67924 23.3341 8.48045 23.3082 9.17406C23.2952 9.52151 23.237 9.86336 23.2198 10.2111C23.2001 10.6072 23.2825 10.9796 23.3084 11.3736C23.3373 11.8141 23.3124 12.2562 23.3181 12.6972C23.3233 13.1016 23.4028 13.4935 23.4176 13.895C23.4316 14.2755 23.4989 14.6382 23.5266 15.0167C23.3275 14.638 23.1425 14.2512 22.9615 13.8636C22.5198 12.9177 22.426 11.9125 22.267 10.8954C22.1385 10.0753 22.0504 9.17305 22.074 8.34018ZM17.6803 3.22297C17.7154 2.85579 17.6107 2.51054 17.6128 2.14574C17.6134 2.04963 17.6167 1.94764 17.6217 1.84345C17.7605 1.91147 17.9005 1.97867 18.0474 2.04284C18.455 2.22092 18.8582 2.46216 19.2473 2.67752C19.9872 3.08702 20.7418 3.60035 21.3332 4.20547C21.4068 4.28066 21.5189 4.33665 21.6323 4.35171C21.4295 5.11362 21.3246 5.90381 21.2725 6.6357C21.2581 6.8383 21.2418 7.04383 21.2263 7.25083C21.2253 7.24954 21.2244 7.24853 21.2234 7.24734C21.0829 7.07421 20.9972 6.87456 20.8901 6.68068C20.6213 6.19453 20.2933 5.71011 19.9613 5.26499C19.6947 4.90772 19.4027 4.56651 19.1515 4.20189C19.0485 4.05254 18.9464 3.84673 18.7394 3.93403C18.7086 3.94697 18.6956 3.98112 18.7199 4.00793C18.8277 4.12717 18.8191 4.37723 18.8724 4.52529C18.928 4.67997 19.0223 4.82189 19.1074 4.96133C19.3819 5.41095 19.6462 5.8613 19.9139 6.31469C20.1028 6.63451 20.2525 6.97893 20.4292 7.30453C20.4093 7.29012 20.3902 7.27506 20.37 7.26093C19.6773 6.77799 19.0054 6.29201 18.2476 5.91188C17.9533 5.76427 17.6514 5.62116 17.3436 5.48797C17.5815 4.76305 17.6081 3.98011 17.6803 3.22297ZM14.9454 9.66013C14.6364 9.00286 14.3947 8.33376 14.2321 7.62821C14.1398 7.22779 14.0778 6.84105 14.0242 6.43347C13.9939 6.20205 13.9291 5.95741 13.9105 5.71681C15.395 5.60253 16.9979 6.33791 18.2394 7.0453C18.8611 7.39954 19.558 7.81125 20.089 8.29401C20.4227 8.5973 20.7555 8.99405 21.1941 9.16442C21.1996 9.22987 21.2041 9.29569 21.2118 9.36059C21.2356 9.56126 21.2563 9.76156 21.2758 9.96177C21.2778 10.0259 21.2799 10.0905 21.2818 10.1542C21.2904 10.4397 21.3252 10.7225 21.3736 11.0035C21.4024 11.3073 21.4329 11.6114 21.4715 11.9161C21.6002 12.9292 21.8974 13.8431 22.3446 14.7562C22.4716 15.0154 22.6209 15.3665 22.8046 15.709C22.3728 15.2646 22.03 14.6959 21.6366 14.2288C20.9921 13.464 20.3055 12.7193 19.6888 11.9323C19.4105 11.5771 19.1835 11.2005 18.8435 10.8988C18.5284 10.6194 18.2448 10.3203 17.938 10.0329C17.3991 9.52821 17.1339 8.67533 16.4747 8.32017C16.4371 8.29997 16.3899 8.34174 16.4143 8.38057C16.6398 8.74243 16.7364 9.19215 16.9129 9.57898C17.0542 9.88852 17.2833 10.2042 17.5187 10.4523C17.8075 10.7568 18.0741 11.0721 18.3782 11.3643C18.725 11.6976 18.9646 12.1195 19.2598 12.4968C19.8829 13.2935 20.5527 14.0543 21.1801 14.8478C21.3881 15.111 21.6008 15.3744 21.8014 15.644C21.6637 15.5992 21.5282 15.5494 21.399 15.4874C21.1394 15.3629 20.9119 15.1949 20.6457 15.0811C20.0182 14.8128 19.4192 14.6048 18.905 14.1384C18.4154 13.6945 17.8916 13.286 17.3992 12.8425C16.9074 12.3997 16.3959 11.8496 16.0189 11.303C15.6481 10.7656 15.2238 10.2526 14.9454 9.66013ZM15.3434 15.0417C15.0654 14.9714 14.782 14.9564 14.5154 14.8513C14.2572 14.7496 14.0126 14.6652 13.7434 14.5879C13.4496 14.5031 13.151 14.3978 12.8749 14.2705C13.479 14.0204 14.1056 13.8141 14.7214 13.6246C15.1282 13.4995 15.5307 13.3446 15.9287 13.194C16.0051 13.1651 16.117 13.1345 16.2284 13.0947C16.309 13.1806 16.3898 13.2656 16.4709 13.3489C16.7732 13.659 17.0905 13.969 17.4221 14.2657C17.4192 14.2654 17.4167 14.2647 17.4139 14.2644C16.7262 14.1764 16.0669 13.808 15.3638 13.9204C15.3233 13.9268 15.3239 13.9947 15.3638 14.0016C16.0811 14.1268 16.7259 14.615 17.4006 14.846C17.7247 14.9569 18.059 15.0988 18.3827 15.2253C18.4478 15.2508 18.5082 15.2808 18.5659 15.3124C18.2464 15.4071 17.9261 15.5339 17.632 15.6668C17.4907 15.5872 17.3234 15.536 17.1457 15.4937C16.5421 15.3498 15.9438 15.1935 15.3434 15.0417ZM15.088 18.3614C15.6851 17.7511 16.3729 17.2404 17.0951 16.7884C17.797 16.3491 18.4836 16.1199 19.2857 15.9487C20.0266 15.7905 20.3371 16.075 21.0379 16.3483C21.9469 16.7029 22.8733 17.0364 23.846 17.1615C23.7164 17.2131 23.5873 17.268 23.4596 17.3313C22.7886 17.6641 22.1227 18.0056 21.5375 18.484C20.2544 19.533 18.9301 20.4983 17.4897 21.3147C17.2316 21.0008 16.9608 20.6984 16.6707 20.4166C16.214 19.9727 15.7032 19.5552 15.3222 19.0424C15.1963 18.873 15.0836 18.6817 14.9188 18.5546C14.9711 18.4893 15.026 18.4248 15.088 18.3614ZM11.6103 25.003C11.6715 24.2958 11.6224 23.4888 11.935 22.831C12.351 21.9557 12.9034 21.2239 13.4999 20.4694C13.7672 20.1312 14.1 19.8217 14.3325 19.4617C14.4642 19.2578 14.5731 19.061 14.6939 18.8709C14.8439 19.1112 14.9451 19.4681 15.0933 19.6697C15.3804 20.06 15.7419 20.3991 16.0798 20.7438C16.3575 21.0271 16.6316 21.329 16.8946 21.6429C15.546 22.3656 14.1486 23.0543 12.9289 23.9805C12.6356 24.2033 12.3861 24.4646 12.1147 24.7113C11.9428 24.8675 11.7616 25.0089 11.5912 25.1621C11.599 25.1099 11.6055 25.0571 11.6103 25.003ZM11.7537 25.8573C12.0274 25.5408 12.3836 25.3094 12.6932 25.0297C13.043 24.7137 13.3917 24.4284 13.7924 24.1752C14.9326 23.4546 16.1525 22.8372 17.3656 22.2344C17.5867 22.5284 17.7951 22.8292 17.9833 23.1331C18.4921 23.955 18.9392 24.7915 19.3413 25.6731C19.4838 25.9856 19.6453 26.2848 19.8153 26.5784C19.4877 26.8071 19.1646 27.0414 18.8506 27.2858C18.0652 27.8975 17.2617 28.4539 16.4883 29.0801C15.6722 29.7409 14.8693 30.419 14.0514 31.0784C13.932 31.1747 13.8137 31.2734 13.6961 31.3737C13.4276 31.0544 13.1751 30.7242 12.9532 30.3734C12.4545 29.585 11.9998 28.7123 11.6606 27.8423C11.4605 27.3292 11.4358 26.8037 11.4002 26.2765C11.5177 26.137 11.6338 25.9962 11.7537 25.8573ZM10.751 34.3473C10.6058 33.9967 10.3872 33.6834 10.1948 33.3577C9.95507 32.952 9.89889 32.5768 9.81527 32.1264C9.50325 30.4433 10.1839 28.6733 10.8229 27.1407C10.8326 27.1932 10.8427 27.2444 10.8534 27.2925C11.0286 28.0745 11.3235 28.7919 11.6791 29.5113C12.0997 30.3621 12.6166 31.1117 13.1718 31.8386C12.6211 32.3432 12.0918 32.879 11.5863 33.4116C11.3033 33.7098 11.0051 34.0188 10.7543 34.3559C10.7531 34.3531 10.7521 34.3501 10.751 34.3473ZM13.3919 41.5444C11.7492 40.6545 11.3183 38.5553 11.1333 36.8233C11.0706 36.236 11.0609 35.5804 10.9371 34.9761C10.9467 34.9628 10.9556 34.9499 10.9656 34.9365C11.223 34.5905 11.5487 34.2555 11.8424 33.9333C12.367 33.3582 12.952 32.8276 13.5329 32.3029C13.8767 32.7385 14.2298 33.1717 14.58 33.6202C15.1063 34.2943 15.6536 34.9239 16.1044 35.6564C16.4957 36.2922 16.7378 36.9784 16.9588 37.6832C15.6656 38.848 14.4899 40.1732 13.5951 41.6614C13.5284 41.6223 13.4624 41.5827 13.3919 41.5444ZM19.9762 44.6958C19.0621 44.656 18.2421 44.8018 17.3697 44.4448C16.6202 44.1381 15.8876 43.7001 15.3236 43.1147C14.9026 42.6777 14.5239 42.3073 14.0767 41.9796C15.0762 40.7752 16.0289 39.5273 17.2171 38.4945C17.4115 39.0696 17.6343 39.6366 17.8686 40.1965C18.1767 40.9326 18.607 41.621 18.9081 42.357C19.2062 43.0855 19.8107 43.8125 20.3731 44.3545C20.462 44.4403 20.5836 44.5722 20.7241 44.7149C20.4674 44.7087 20.2144 44.7063 19.9762 44.6958ZM21.5261 44.1758C21.3895 44.0644 21.2515 43.955 21.1273 43.84C20.5975 43.3479 20.0701 42.7113 19.7595 42.0606C19.1368 40.7553 18.4721 39.4626 18.0254 38.0813C18.0045 38.0167 17.9844 37.9511 17.9644 37.8858C18.5499 37.4399 19.1624 37.0293 19.7818 36.6289C20.6084 36.0945 21.5232 35.7975 22.4042 35.3831C23.3095 34.9574 24.2142 34.4911 25.0898 33.9795C25.3257 34.3734 25.5443 34.7769 25.7391 35.1877C26.1795 36.1167 26.5138 37.1001 27.0294 37.9929C27.2392 38.3565 27.4895 38.7071 27.7455 39.0454C26.4301 39.7066 25.0961 40.3411 23.9818 41.3229C23.0931 42.1057 22.0995 43.0727 21.5261 44.1758ZM30.7087 43.1417C30.5106 43.281 30.2894 43.3829 30.1191 43.5841C29.8487 43.9032 29.6206 44.1591 29.2932 44.4299C28.6659 44.9484 27.961 45.3584 27.169 45.5691C26.3514 45.7864 25.4654 45.8876 24.6324 45.7572C24.2162 45.6921 23.8104 45.6218 23.4109 45.4853C23.0299 45.3549 22.7235 45.1171 22.3555 44.9661C22.2809 44.9355 22.2042 44.909 22.1258 44.8856C22.099 44.8024 22.0643 44.7097 22.0084 44.6327C22.816 43.5947 23.5966 42.569 24.6406 41.7172C25.7085 40.846 26.9742 40.2651 28.2219 39.6794C28.4066 39.9311 28.5943 40.1818 28.8146 40.4005C29.5966 41.1771 30.256 41.8899 30.6937 42.9202C30.7173 42.9757 30.7478 43.0182 30.7812 43.0541C30.7556 43.0821 30.7311 43.111 30.7087 43.1417ZM34.7567 39.2296C34.3208 39.6507 33.8493 40.0318 33.4139 40.4538C33.2261 40.636 33.0604 40.8305 32.8427 40.9749C32.6178 41.1241 32.3748 41.2444 32.1819 41.4389C31.911 41.7119 31.6903 42.0268 31.4565 42.3302C31.1089 41.5497 30.6422 40.8669 30.0251 40.2717C29.6928 39.951 29.3898 39.6109 29.1018 39.2582C29.1263 39.2462 29.151 39.2344 29.1752 39.2223C29.8636 38.8807 30.4945 38.4538 31.171 38.0976C31.8288 37.7514 32.4773 37.3296 33.0383 36.842C33.6386 36.32 34.311 35.8277 34.9949 35.4327C35.2363 35.2933 35.4858 35.1712 35.7126 35.0243C35.7272 35.038 35.7421 35.0506 35.7573 35.0619C35.7563 35.4145 35.8162 35.7438 35.8521 36.1364C35.9532 37.2459 35.5529 38.4605 34.7567 39.2296ZM36.4222 33.1126C36.3207 33.3593 36.1887 33.5949 36.07 33.8351C36.0286 33.7693 35.9891 33.7029 35.9545 33.6349C35.7573 33.2486 35.5755 32.843 35.3327 32.4838C34.9248 31.8803 34.5649 31.2055 34.1972 30.5783C33.8435 29.975 33.3923 29.4343 32.9434 28.9008C32.8393 28.7772 32.7379 28.6511 32.6375 28.5244C33.0336 28.2266 33.4339 27.9334 33.842 27.6515C34.5953 27.131 35.3739 26.7671 36.185 26.3912C36.2139 26.4283 36.2423 26.4653 36.275 26.502C37.8996 28.3191 37.2572 31.0835 36.4222 33.1126Z" fill="#F09F9F"/>
<path d="M34.8789 33.6641C34.8789 34.4388 34.6836 35.1745 34.293 35.8711C33.9023 36.5612 33.2936 37.1211 32.4668 37.5508C31.6465 37.9805 30.5853 38.1953 29.2832 38.1953C28.6322 38.1953 28.0592 38.166 27.5645 38.1074C27.0762 38.0488 26.6204 37.9544 26.1973 37.8242C25.7741 37.6875 25.3346 37.5117 24.8789 37.2969V33.8594C25.6536 34.25 26.4349 34.5495 27.2227 34.7578C28.0104 34.9596 28.7233 35.0605 29.3613 35.0605C29.7454 35.0605 30.0579 35.015 30.2988 34.9238C30.5462 34.8327 30.7285 34.709 30.8457 34.5527C30.9629 34.39 31.0215 34.2044 31.0215 33.9961C31.0215 33.7487 30.9336 33.5404 30.7578 33.3711C30.5885 33.1953 30.3151 33.013 29.9375 32.8242C29.5599 32.6354 29.0618 32.401 28.4434 32.1211C27.916 31.8737 27.4375 31.6198 27.0078 31.3594C26.5846 31.099 26.2201 30.8027 25.9141 30.4707C25.6146 30.1322 25.3835 29.7383 25.2207 29.2891C25.0579 28.8398 24.9766 28.3092 24.9766 27.6973C24.9766 26.7793 25.2012 26.0111 25.6504 25.3926C26.1061 24.7676 26.7376 24.2988 27.5449 23.9863C28.3587 23.6738 29.2962 23.5176 30.3574 23.5176C31.2884 23.5176 32.125 23.6217 32.8672 23.8301C33.6159 24.0384 34.2865 24.276 34.8789 24.543L33.6973 27.5215C33.0853 27.2415 32.4831 27.0202 31.8906 26.8574C31.2982 26.6882 30.748 26.6035 30.2402 26.6035C29.9082 26.6035 29.6348 26.6458 29.4199 26.7305C29.2116 26.8086 29.0553 26.916 28.9512 27.0527C28.8535 27.1895 28.8047 27.3457 28.8047 27.5215C28.8047 27.7428 28.8893 27.9414 29.0586 28.1172C29.2344 28.293 29.5241 28.485 29.9277 28.6934C30.3379 28.8952 30.8945 29.1589 31.5977 29.4844C32.2943 29.7969 32.8867 30.1354 33.375 30.5C33.8633 30.8581 34.2344 31.291 34.4883 31.7988C34.7487 32.3001 34.8789 32.9219 34.8789 33.6641ZM45.5625 38H37.0859V23.7227H45.5625V26.8184H40.9434V29.0645H45.2207V32.1602H40.9434V34.8555H45.5625V38ZM60.9238 38H56.4609L53.6777 33.5371L50.9238 38H46.5586L51.2949 30.6953L46.8418 23.7227H51.1191L53.6973 28.1367L56.1777 23.7227H60.582L56.0605 30.998L60.9238 38ZM67.6328 29.0156L70.0938 23.7227H74.2734L69.5762 32.4238V38H65.6895V32.541L60.9922 23.7227H65.1914L67.6328 29.0156ZM85.9531 23.7227C87.763 23.7227 89.1172 24.1165 90.0156 24.9043C90.9206 25.6921 91.373 26.8118 91.373 28.2637C91.373 28.9147 91.2786 29.5397 91.0898 30.1387C90.9076 30.7376 90.6048 31.2715 90.1816 31.7402C89.765 32.209 89.2083 32.5801 88.5117 32.8535C87.8216 33.127 86.9688 33.2637 85.9531 33.2637H84.8691V38H81.0117V23.7227H85.9531ZM85.8652 26.8379H84.8691V30.1191H85.6309C85.9629 30.1191 86.2721 30.0638 86.5586 29.9531C86.8451 29.8359 87.0729 29.6504 87.2422 29.3965C87.418 29.1361 87.5059 28.791 87.5059 28.3613C87.5059 27.9121 87.3724 27.5475 87.1055 27.2676C86.8385 26.9811 86.4251 26.8379 85.8652 26.8379ZM93.6484 38V23.7227H97.5254V38H93.6484ZM114.215 38H109.156L103.941 27.9414H103.854C103.886 28.2474 103.915 28.6152 103.941 29.0449C103.967 29.4746 103.99 29.9141 104.01 30.3633C104.029 30.806 104.039 31.2064 104.039 31.5645V38H100.621V23.7227H105.66L110.855 33.6445H110.914C110.895 33.332 110.875 32.9707 110.855 32.5605C110.836 32.1439 110.816 31.724 110.797 31.3008C110.784 30.8776 110.777 30.5033 110.777 30.1777V23.7227H114.215V38ZM125.777 38H117.301V23.7227H125.777V26.8184H121.158V29.0645H125.436V32.1602H121.158V34.8555H125.777V38ZM137.037 38L136.334 35.3242H131.695L130.973 38H126.734L131.393 23.6641H136.539L141.256 38H137.037ZM135.533 32.1602L134.918 29.8164C134.853 29.5625 134.758 29.2012 134.635 28.7324C134.511 28.2572 134.387 27.7689 134.264 27.2676C134.146 26.7598 134.055 26.3431 133.99 26.0176C133.932 26.3431 133.847 26.7467 133.736 27.2285C133.632 27.7038 133.521 28.1758 133.404 28.6445C133.294 29.1133 133.196 29.5039 133.111 29.8164L132.496 32.1602H135.533ZM147.75 23.7227C149.56 23.7227 150.914 24.1165 151.812 24.9043C152.717 25.6921 153.17 26.8118 153.17 28.2637C153.17 28.9147 153.076 29.5397 152.887 30.1387C152.704 30.7376 152.402 31.2715 151.979 31.7402C151.562 32.209 151.005 32.5801 150.309 32.8535C149.618 33.127 148.766 33.2637 147.75 33.2637H146.666V38H142.809V23.7227H147.75ZM147.662 26.8379H146.666V30.1191H147.428C147.76 30.1191 148.069 30.0638 148.355 29.9531C148.642 29.8359 148.87 29.6504 149.039 29.3965C149.215 29.1361 149.303 28.791 149.303 28.3613C149.303 27.9121 149.169 27.5475 148.902 27.2676C148.635 26.9811 148.222 26.8379 147.662 26.8379ZM160.387 23.7227C162.197 23.7227 163.551 24.1165 164.449 24.9043C165.354 25.6921 165.807 26.8118 165.807 28.2637C165.807 28.9147 165.712 29.5397 165.523 30.1387C165.341 30.7376 165.038 31.2715 164.615 31.7402C164.199 32.209 163.642 32.5801 162.945 32.8535C162.255 33.127 161.402 33.2637 160.387 33.2637H159.303V38H155.445V23.7227H160.387ZM160.299 26.8379H159.303V30.1191H160.064C160.396 30.1191 160.706 30.0638 160.992 29.9531C161.279 29.8359 161.507 29.6504 161.676 29.3965C161.852 29.1361 161.939 28.791 161.939 28.3613C161.939 27.9121 161.806 27.5475 161.539 27.2676C161.272 26.9811 160.859 26.8379 160.299 26.8379ZM168.082 38V23.7227H171.939V34.8848H177.438V38H168.082ZM188.199 38H179.723V23.7227H188.199V26.8184H183.58V29.0645H187.857V32.1602H183.58V34.8555H188.199V38Z" fill="#F2851A"/>
</svg>
