<svg width="50" height="50" viewBox="0 0 50 50" fill="none" xmlns="http://www.w3.org/2000/svg">
<path d="M46.0257 11.6971H37.2243C39.9276 9.789 40.5446 6.15503 38.7978 3.47651C36.968 0.670786 33.2359 -0.095663 30.4449 1.71915C29.3125 2.45445 28.092 4.35152 26.7905 7.31478C26.2243 7.11623 25.6213 7.00593 24.9964 7.00593C24.3714 7.00593 23.7684 7.11623 23.2022 7.31478C21.9007 4.36624 20.6802 2.45445 19.5552 1.71915C16.7369 -0.10345 13.0246 0.682301 11.2022 3.47651C9.43899 6.18016 10.0796 9.79924 12.7684 11.6971H3.97428C2.18752 11.6971 0.739014 13.153 0.739014 14.9324V19.9765C0.739014 21.7633 2.18752 23.2118 3.97428 23.2118H4.2243V41.6677C4.2243 45.8589 7.62871 49.2633 11.8199 49.2633H38.1802C42.364 49.2633 45.7758 45.8589 45.7758 41.6677V23.2118H46.0258C47.8052 23.2118 49.2611 21.7633 49.2611 19.9765V14.9324C49.2611 13.153 47.8052 11.6971 46.0257 11.6971ZM31.2464 2.95448C33.4151 1.54982 36.2225 2.21734 37.5699 4.27801C38.9664 6.43485 38.329 9.23329 36.239 10.6015C35.3787 11.1604 33.3052 11.4618 30.4302 11.4618C30.1361 10.0207 29.2831 8.77801 28.1066 7.96915C29.2684 5.31475 30.3787 3.52063 31.2464 2.95448ZM24.9964 8.47651C26.9375 8.47651 28.5846 9.86622 28.9816 11.6971H21.0111C21.4155 9.86622 23.0625 8.47651 24.9964 8.47651ZM30.0846 13.1677V21.7412H19.9154V13.1677H30.0846ZM12.4302 4.27801C13.8407 2.12348 16.6846 1.59983 18.7537 2.95448C19.614 3.52063 20.7317 5.32211 21.8934 7.97651C20.7169 8.77801 19.864 10.0207 19.5699 11.4545C16.7022 11.4545 14.614 11.1604 13.7537 10.6015C11.6281 9.19986 11.0565 6.37629 12.4302 4.27801ZM3.97428 21.7412C3.00368 21.7412 2.2096 20.9471 2.2096 19.9765V14.9324C2.2096 13.9618 3.00369 13.1677 3.97428 13.1677H18.4449V21.7412H3.97428ZM44.3052 41.6677C44.3052 45.0501 41.5552 47.7927 38.1802 47.7927H11.8199C8.44487 47.7927 5.69488 45.0501 5.69488 41.6677V23.2118H44.3052V41.6677ZM47.7905 19.9765C47.7905 20.9471 46.9963 21.7412 46.0258 21.7412H31.5552V13.1677H46.0257C46.9963 13.1677 47.7905 13.9618 47.7905 14.9324V19.9765H47.7905Z" fill="#F2851A"/>
<path d="M24.996 28.8253C23.9106 27.8886 20.6456 25.6127 17.2653 28.5428C15.9427 29.6927 15.3621 31.4882 15.6307 33.5986C16.1218 37.4571 19.1908 41.5117 23.0945 43.4583C23.6988 43.7595 24.3472 43.9103 24.9963 43.9103C25.6444 43.9103 26.2924 43.7599 26.896 43.4594H26.8963C30.7986 41.517 33.8701 37.465 34.3656 33.6062C34.6366 31.4933 34.059 29.6953 32.7367 28.5417C29.3585 25.6134 26.0835 27.8897 24.996 28.8253ZM31.7719 29.6514C32.975 30.7012 33.0533 32.2795 32.9068 33.4187C32.5385 36.2885 30.1304 40.2069 26.2411 42.1428C25.4494 42.537 24.5418 42.537 23.7508 42.1421C19.86 40.2019 17.4545 36.2824 17.0894 33.413C16.9447 32.2756 17.0251 30.7002 18.2293 29.6532C19.1456 28.8591 20.0435 28.5668 20.8685 28.5668C22.2357 28.5668 23.4037 29.3685 24.1257 30.0184C24.6208 30.4632 25.3686 30.4636 25.8652 30.0187C27.027 28.9768 29.3402 27.5447 31.7719 29.6514Z" fill="#F2851A"/>
</svg>
