<svg width="24" height="24" viewBox="0 0 24 24" fill="none" xmlns="http://www.w3.org/2000/svg">
<path fill-rule="evenodd" clip-rule="evenodd" d="M18.9775 7.00686C17.5996 5.66438 15.355 5.66438 13.9771 7.00686L12 8.93305L10.0229 7.00686C8.64502 5.66438 6.40043 5.66438 5.02251 7.00686C3.65916 8.33513 3.65916 10.4776 5.02251 11.8059L12 18.6039L18.9775 11.8059C20.3408 10.4776 20.3408 8.33513 18.9775 7.00686ZM12.5814 5.57434C14.7359 3.47522 18.2186 3.47522 20.3732 5.57434C22.5423 7.68765 22.5423 11.1251 20.3732 13.2384L12.6978 20.7163C12.3095 21.0946 11.6905 21.0946 11.3022 20.7163L3.62684 13.2384C1.45772 11.1251 1.45772 7.68765 3.62684 5.57434C5.78139 3.47522 9.26407 3.47522 11.4186 5.57434L12 6.14077L12.5814 5.57434Z" fill="#323232"/>
</svg>
