<svg width="30" height="30" viewBox="0 0 30 30" fill="none" xmlns="http://www.w3.org/2000/svg">
<path fill-rule="evenodd" clip-rule="evenodd" d="M15 30C23.2843 30 30 23.2843 30 15C30 6.71572 23.2843 0 15 0C6.71572 0 0 6.71572 0 15C0 23.2843 6.71572 30 15 30Z" fill="#F2851A"/>
<path fill-rule="evenodd" clip-rule="evenodd" d="M15.74 8.25073C16.9156 8.25313 17.1739 8.26296 17.7831 8.29078C18.5016 8.32356 18.9922 8.43763 19.4216 8.60451C19.8655 8.77701 20.2419 9.00778 20.6172 9.38308C20.9924 9.75831 21.2233 10.1347 21.3958 10.5787C21.5626 11.008 21.6767 11.4987 21.7095 12.2171C21.7385 12.854 21.748 13.1074 21.7498 14.4264V15.5739C21.748 16.8929 21.7385 17.1463 21.7095 17.7832C21.6767 18.5016 21.5626 18.9923 21.3958 19.4216C21.2233 19.8655 20.9924 20.242 20.6172 20.6173C20.2419 20.9925 19.8655 21.2233 19.4216 21.3958C18.9922 21.5626 18.5016 21.6768 17.7831 21.7095C17.1463 21.7386 16.8928 21.748 15.5739 21.7498H14.4264C13.1074 21.748 12.854 21.7386 12.2171 21.7095C11.4986 21.6768 11.008 21.5626 10.5786 21.3958C10.1347 21.2233 9.75831 20.9925 9.38301 20.6173C9.00778 20.242 8.77693 19.8655 8.60451 19.4216C8.43763 18.9923 8.32348 18.5016 8.29071 17.7832C8.26296 17.1739 8.25306 16.9156 8.25073 15.74V14.2603C8.25306 13.0846 8.26296 12.8263 8.29071 12.2171C8.32348 11.4987 8.43763 11.008 8.60451 10.5787C8.77693 10.1347 9.00778 9.75831 9.38301 9.38308C9.75831 9.00778 10.1347 8.77701 10.5786 8.60451C11.008 8.43763 11.4986 8.32356 12.2171 8.29078C12.8263 8.26296 13.0846 8.25313 14.2603 8.25073H15.74ZM15.5839 9.46671H14.4163C13.1394 9.46836 12.8989 9.47713 12.2725 9.50571C11.6144 9.53571 11.257 9.64566 11.0191 9.73813C10.7041 9.86061 10.4792 10.0069 10.243 10.243C10.0068 10.4793 9.86053 10.7041 9.73806 11.0192C9.64566 11.257 9.53571 11.6144 9.50571 12.2725C9.47713 12.8989 9.46836 13.1394 9.46663 14.4163V15.5839C9.46836 16.8609 9.47713 17.1013 9.50571 17.7277C9.53571 18.3859 9.64566 18.7432 9.73806 18.9811C9.86053 19.2961 10.0069 19.5211 10.243 19.7572C10.4792 19.9934 10.7041 20.1397 11.0191 20.2621C11.257 20.3546 11.6144 20.4646 12.2725 20.4946C12.9842 20.527 13.1977 20.5339 15.0001 20.5339L15.2089 20.5339C16.8205 20.5333 17.0445 20.5258 17.7277 20.4946C18.3858 20.4646 18.7432 20.3546 18.9811 20.2621C19.2961 20.1397 19.521 19.9934 19.7572 19.7572C19.9934 19.5211 20.1397 19.2961 20.2621 18.9811C20.3545 18.7432 20.4645 18.3859 20.4946 17.7277C20.527 17.016 20.5339 16.8025 20.5339 15.0001V14.7913C20.5333 13.18 20.5257 12.9559 20.4946 12.2725C20.4645 11.6144 20.3545 11.257 20.2621 11.0192C20.1397 10.7041 19.9934 10.4793 19.7572 10.243C19.521 10.0069 19.2961 9.86061 18.9811 9.73813C18.7432 9.64566 18.3858 9.53571 17.7277 9.50571C17.1013 9.47713 16.8608 9.46836 15.5839 9.46671ZM15.0001 11.5339C16.9144 11.5339 18.4663 13.0858 18.4663 15.0001C18.4663 16.9145 16.9144 18.4663 15.0001 18.4663C13.0858 18.4663 11.5339 16.9145 11.5339 15.0001C11.5339 13.0858 13.0858 11.5339 15.0001 11.5339ZM15.0001 12.7501C13.7575 12.7501 12.7501 13.7575 12.7501 15.0001C12.7501 16.2428 13.7575 17.2501 15.0001 17.2501C16.2427 17.2501 17.2501 16.2428 17.2501 15.0001C17.2501 13.7575 16.2427 12.7501 15.0001 12.7501ZM18.6033 10.587C19.0506 10.587 19.4133 10.9496 19.4133 11.397C19.4133 11.8444 19.0506 12.207 18.6033 12.207C18.1559 12.207 17.7933 11.8444 17.7933 11.397C17.7933 10.9496 18.1559 10.587 18.6033 10.587Z" fill="#FBFBFB"/>
</svg>
