<svg width="20" height="20" viewBox="0 0 20 20" fill="none" xmlns="http://www.w3.org/2000/svg">
<path fill-rule="evenodd" clip-rule="evenodd" d="M12.4993 0.833332C12.0391 0.833332 11.666 1.20643 11.666 1.66667H8.33268C8.33268 1.20643 7.95959 0.833332 7.49935 0.833332H5.83268C5.37245 0.833332 4.99935 1.20643 4.99935 1.66667H4.16602C2.7853 1.66667 1.66602 2.78595 1.66602 4.16667V15.8333C1.66602 17.214 2.7853 18.3333 4.16602 18.3333H15.8327C17.2134 18.3333 18.3327 17.214 18.3327 15.8333V4.16667C18.3327 2.78595 17.2134 1.66667 15.8327 1.66667H14.9993C14.9993 1.20643 14.6263 0.833332 14.166 0.833332H12.4993ZM4.16602 3.33333C3.70578 3.33333 3.33268 3.70643 3.33268 4.16667V5H16.666V4.16667C16.666 3.70643 16.2929 3.33333 15.8327 3.33333H4.16602ZM3.33268 15.8333V6.66667H16.666V15.8333C16.666 16.2936 16.2929 16.6667 15.8327 16.6667H4.16602C3.70578 16.6667 3.33268 16.2936 3.33268 15.8333ZM4.58268 9.16667C4.58268 8.70643 4.95578 8.33333 5.41602 8.33333H6.24935C6.70959 8.33333 7.08268 8.70643 7.08268 9.16667V10C7.08268 10.4602 6.70959 10.8333 6.24935 10.8333H5.41602C4.95578 10.8333 4.58268 10.4602 4.58268 10V9.16667ZM4.58268 13.3333C4.58268 12.8731 4.95578 12.5 5.41602 12.5H6.24935C6.70959 12.5 7.08268 12.8731 7.08268 13.3333V14.1667C7.08268 14.6269 6.70959 15 6.24935 15H5.41602C4.95578 15 4.58268 14.6269 4.58268 14.1667V13.3333ZM8.74935 9.16667C8.74935 8.70643 9.12245 8.33333 9.58268 8.33333H10.416C10.8763 8.33333 11.2493 8.70643 11.2493 9.16667V10C11.2493 10.4602 10.8763 10.8333 10.416 10.8333H9.58268C9.12245 10.8333 8.74935 10.4602 8.74935 10V9.16667ZM8.74935 13.3333C8.74935 12.8731 9.12245 12.5 9.58268 12.5H10.416C10.8763 12.5 11.2493 12.8731 11.2493 13.3333V14.1667C11.2493 14.6269 10.8763 15 10.416 15H9.58268C9.12245 15 8.74935 14.6269 8.74935 14.1667V13.3333ZM12.916 9.16667C12.916 8.70643 13.2891 8.33333 13.7493 8.33333H14.5827C15.0429 8.33333 15.416 8.70643 15.416 9.16667V10C15.416 10.4602 15.0429 10.8333 14.5827 10.8333H13.7493C13.2891 10.8333 12.916 10.4602 12.916 10V9.16667ZM12.916 13.3333C12.916 12.8731 13.2891 12.5 13.7493 12.5H14.5827C15.0429 12.5 15.416 12.8731 15.416 13.3333V14.1667C15.416 14.6269 15.0429 15 14.5827 15H13.7493C13.2891 15 12.916 14.6269 12.916 14.1667V13.3333Z" fill="#F2851A"/>
</svg>
