<svg width="20" height="20" viewBox="0 0 20 20" fill="none" xmlns="http://www.w3.org/2000/svg">
<path fill-rule="evenodd" clip-rule="evenodd" d="M10.6012 18.9111C10.444 19.0744 10.2272 19.1667 10.0007 19.1667C9.77407 19.1667 9.557 19.0741 9.3999 18.9109L9.32838 18.8355C9.32838 18.8355 9.2185 18.7182 9.13634 18.6288C8.97206 18.45 8.73876 18.1914 8.45942 17.8691C7.90155 17.2253 7.15603 16.3225 6.40864 15.2886C5.66313 14.2574 4.90402 13.0797 4.32833 11.8873C3.75893 10.7079 3.33398 9.44356 3.33398 8.25758C3.33398 4.60728 6.32906 1.66667 10.0007 1.66667C13.6722 1.66667 16.6673 4.60728 16.6673 8.25758C16.6673 9.44356 16.2424 10.7079 15.673 11.8873C15.0973 13.0797 14.3382 14.2574 13.5927 15.2886C12.8453 16.3225 12.0998 17.2253 11.5419 17.8691C11.2625 18.1914 11.0292 18.45 10.865 18.6288C10.865 18.6288 10.6461 18.8634 10.6012 18.9111ZM5.00065 8.25758C5.00065 5.54823 7.22892 3.33333 10.0007 3.33333C12.7724 3.33333 15.0007 5.54823 15.0007 8.25758C15.0007 9.07817 14.6964 10.0766 14.1721 11.1626C13.654 12.2357 12.9548 13.3261 12.242 14.3122C11.531 15.2956 10.8182 16.1592 10.2823 16.7776C10.1817 16.8938 10.0874 17.0012 10.0006 17.0989C9.91394 17.0012 9.81965 16.8938 9.71896 16.7776C9.18309 16.1592 8.47027 15.2956 7.75933 14.3122C7.0465 13.3261 6.34728 12.2357 5.82922 11.1626C5.30488 10.0766 5.00065 9.07817 5.00065 8.25758Z" fill="#F2851A"/>
<path fill-rule="evenodd" clip-rule="evenodd" d="M7.50065 8.33333C7.50065 6.95262 8.61994 5.83333 10.0007 5.83333C11.3814 5.83333 12.5007 6.95262 12.5007 8.33333C12.5007 9.71405 11.3814 10.8333 10.0007 10.8333C8.61994 10.8333 7.50065 9.71405 7.50065 8.33333ZM9.16732 8.33333C9.16732 7.8731 9.54041 7.5 10.0007 7.5C10.4609 7.5 10.834 7.8731 10.834 8.33333C10.834 8.79357 10.4609 9.16667 10.0007 9.16667C9.54041 9.16667 9.16732 8.79357 9.16732 8.33333Z" fill="#F2851A"/>
</svg>
