<svg width="20" height="20" viewBox="0 0 20 20" fill="none" xmlns="http://www.w3.org/2000/svg">
<path fill-rule="evenodd" clip-rule="evenodd" d="M3.33398 3.33333C1.95327 3.33333 0.833984 4.45262 0.833984 5.83333V14.1667C0.833984 15.5474 1.95327 16.6667 3.33398 16.6667H16.6673C18.048 16.6667 19.1673 15.5474 19.1673 14.1667V5.83333C19.1673 4.45262 18.048 3.33333 16.6673 3.33333H3.33398ZM2.50065 6.05573V14.1667C2.50065 14.6269 2.87375 15 3.33398 15H16.6673C17.1276 15 17.5006 14.6269 17.5006 14.1667V6.05578L11.5355 10.6953C10.6328 11.3975 9.36862 11.3975 8.46584 10.6953L2.50065 6.05573ZM16.1434 5H3.85799L9.48907 9.37973C9.79 9.61378 10.2114 9.61378 10.5123 9.37973L16.1434 5Z" fill="#F2851A"/>
</svg>
