<svg width="20" height="20" viewBox="0 0 20 20" fill="none" xmlns="http://www.w3.org/2000/svg">
<path d="M10.0007 15.8333C10.691 15.8333 11.2507 15.2737 11.2507 14.5833C11.2507 13.893 10.691 13.3333 10.0007 13.3333C9.3103 13.3333 8.75065 13.893 8.75065 14.5833C8.75065 15.2737 9.3103 15.8333 10.0007 15.8333Z" fill="#F2851A"/>
<path fill-rule="evenodd" clip-rule="evenodd" d="M5.83398 19.1667C4.45327 19.1667 3.33398 18.0474 3.33398 16.6667V3.33333C3.33398 1.95262 4.45327 0.833333 5.83398 0.833333H14.1673C15.548 0.833333 16.6673 1.95262 16.6673 3.33333V16.6667C16.6673 18.0474 15.548 19.1667 14.1673 19.1667H5.83398ZM5.00065 16.6667C5.00065 17.1269 5.37375 17.5 5.83398 17.5H14.1673C14.6276 17.5 15.0007 17.1269 15.0007 16.6667L15.0007 3.33333C15.0007 2.8731 14.6276 2.5 14.1673 2.5L5.83398 2.5C5.37375 2.5 5.00065 2.8731 5.00065 3.33333L5.00065 16.6667Z" fill="#F2851A"/>
</svg>
