<svg width="20" height="20" viewBox="0 0 20 20" fill="none" xmlns="http://www.w3.org/2000/svg">
<path d="M10.8327 6.66666C10.8327 6.20643 10.4596 5.83333 9.99935 5.83333C9.53911 5.83333 9.16602 6.20643 9.16602 6.66666V10C9.16602 10.2623 9.28951 10.5093 9.49935 10.6667L12.8327 13.1667C13.2009 13.4428 13.7232 13.3682 13.9993 13C14.2755 12.6318 14.2009 12.1095 13.8327 11.8333L10.8327 9.58333V6.66666Z" fill="#F2851A"/>
<path fill-rule="evenodd" clip-rule="evenodd" d="M1.66602 10C1.66602 5.39762 5.39698 1.66666 9.99935 1.66666C14.6017 1.66666 18.3327 5.39762 18.3327 10C18.3327 14.6024 14.6017 18.3333 9.99935 18.3333C5.39698 18.3333 1.66602 14.6024 1.66602 10ZM9.99935 3.33333C6.31745 3.33333 3.33268 6.3181 3.33268 10C3.33268 13.6819 6.31745 16.6667 9.99935 16.6667C13.6812 16.6667 16.666 13.6819 16.666 10C16.666 6.3181 13.6812 3.33333 9.99935 3.33333Z" fill="#F2851A"/>
</svg>
