<svg width="20" height="20" viewBox="0 0 20 20" fill="none" xmlns="http://www.w3.org/2000/svg">
<path fill-rule="evenodd" clip-rule="evenodd" d="M10 9.16667C11.8409 9.16667 13.3333 7.67428 13.3333 5.83334C13.3333 3.99239 11.8409 2.5 10 2.5C8.15905 2.5 6.66667 3.99239 6.66667 5.83334C6.66667 7.67428 8.15905 9.16667 10 9.16667ZM6.92136 11.7481C7.22523 11.6946 7.53792 11.6667 7.85714 11.6667H12.1429C12.4621 11.6667 12.7748 11.6946 13.0786 11.7481C15.5912 12.1907 17.5 14.3844 17.5 17.0238C17.5 18.2073 16.5406 19.1667 15.3571 19.1667H4.64286C3.45939 19.1667 2.5 18.2073 2.5 17.0238C2.5 14.3844 4.40884 12.1907 6.92136 11.7481ZM7.27169 10.0241C5.904 9.13181 5 7.58814 5 5.83334C5 3.07191 7.23858 0.833336 10 0.833336C12.7614 0.833336 15 3.07191 15 5.83334C15 7.58814 14.096 9.13181 12.7283 10.0241C12.5414 10.146 12.3459 10.2557 12.1429 10.3522C11.4934 10.6607 10.7669 10.8333 10 10.8333C9.23314 10.8333 8.50661 10.6607 7.85714 10.3522C7.65408 10.2557 7.45856 10.146 7.27169 10.0241ZM4.16667 17.0238C4.16667 17.2868 4.37986 17.5 4.64286 17.5H15.3571C15.6201 17.5 15.8333 17.2868 15.8333 17.0238C15.8333 14.9856 14.1811 13.3333 12.1429 13.3333H7.85714C5.81895 13.3333 4.16667 14.9856 4.16667 17.0238Z" fill="#F2851A"/>
</svg>
