<svg width="20" height="20" viewBox="0 0 20 20" fill="none" xmlns="http://www.w3.org/2000/svg">
<path d="M7.49935 10C8.41982 10 9.16602 9.25381 9.16602 8.33333C9.16602 7.41286 8.41982 6.66666 7.49935 6.66666C6.57887 6.66666 5.83268 7.41286 5.83268 8.33333C5.83268 9.25381 6.57887 10 7.49935 10Z" fill="#F2851A"/>
<path d="M12.309 13.4567C12.4347 13.1534 12.4993 12.8283 12.4993 12.5H7.49935C7.49935 12.8283 7.56401 13.1534 7.68965 13.4567C7.81529 13.76 7.99944 14.0356 8.23158 14.2678C8.46373 14.4999 8.73933 14.6841 9.04264 14.8097C9.34595 14.9353 9.67104 15 9.99935 15C10.3277 15 10.6527 14.9353 10.9561 14.8097C11.2594 14.6841 11.535 14.4999 11.7671 14.2678C11.9993 14.0356 12.1834 13.76 12.309 13.4567Z" fill="#F2851A"/>
<path d="M11.666 7.5C11.2058 7.5 10.8327 7.87309 10.8327 8.33333C10.8327 8.79357 11.2058 9.16666 11.666 9.16666H13.3327C13.7929 9.16666 14.166 8.79357 14.166 8.33333C14.166 7.87309 13.7929 7.5 13.3327 7.5H11.666Z" fill="#F2851A"/>
<path fill-rule="evenodd" clip-rule="evenodd" d="M9.99935 1.66666C5.39698 1.66666 1.66602 5.39762 1.66602 10C1.66602 14.6024 5.39698 18.3333 9.99935 18.3333C14.6017 18.3333 18.3327 14.6024 18.3327 10C18.3327 5.39762 14.6017 1.66666 9.99935 1.66666ZM3.33268 10C3.33268 6.3181 6.31745 3.33333 9.99935 3.33333C13.6812 3.33333 16.666 6.3181 16.666 10C16.666 13.6819 13.6812 16.6667 9.99935 16.6667C6.31745 16.6667 3.33268 13.6819 3.33268 10Z" fill="#F2851A"/>
</svg>
