<svg width="20" height="20" viewBox="0 0 20 20" fill="none" xmlns="http://www.w3.org/2000/svg">
<path fill-rule="evenodd" clip-rule="evenodd" d="M10.6004 18.9112C10.4433 19.0745 10.2265 19.1667 9.99992 19.1667C9.77333 19.1667 9.55627 19.0742 9.39916 18.9109L9.32764 18.8356C9.32764 18.8356 9.21777 18.7183 9.13561 18.6289C8.97133 18.4501 8.73803 18.1915 8.45869 17.8692C7.90082 17.2254 7.1553 16.3225 6.40791 15.2887C5.6624 14.2574 4.90329 13.0798 4.3276 11.8874C3.75819 10.708 3.33325 9.44364 3.33325 8.25766C3.33325 4.60736 6.32832 1.66675 9.99992 1.66675C13.6715 1.66675 16.6666 4.60736 16.6666 8.25766C16.6666 9.44364 16.2416 10.708 15.6722 11.8874C15.0965 13.0798 14.3374 14.2574 13.5919 15.2887C12.8445 16.3225 12.099 17.2254 11.5411 17.8692C11.2618 18.1915 11.0285 18.4501 10.8642 18.6289C10.8642 18.6289 10.6453 18.8635 10.6004 18.9112ZM4.99992 8.25766C4.99992 5.54831 7.22819 3.33341 9.99992 3.33341C12.7716 3.33341 14.9999 5.54831 14.9999 8.25766C14.9999 9.07825 14.6957 10.0767 14.1713 11.1627C13.6533 12.2358 12.9541 13.3262 12.2412 14.3123C11.5303 15.2957 10.8175 16.1593 10.2816 16.7777C10.1809 16.8939 10.0866 17.0012 9.99992 17.0989C9.91321 17.0012 9.81891 16.8939 9.71823 16.7777C9.18235 16.1593 8.46954 15.2957 7.75859 14.3123C7.04577 13.3262 6.34655 12.2358 5.82849 11.1627C5.30414 10.0767 4.99992 9.07825 4.99992 8.25766Z" fill="#757575"/>
<path fill-rule="evenodd" clip-rule="evenodd" d="M7.49992 8.33341C7.49992 6.9527 8.61921 5.83341 9.99992 5.83341C11.3806 5.83341 12.4999 6.9527 12.4999 8.33341C12.4999 9.71413 11.3806 10.8334 9.99992 10.8334C8.61921 10.8334 7.49992 9.71413 7.49992 8.33341ZM9.16658 8.33341C9.16658 7.87318 9.53968 7.50008 9.99992 7.50008C10.4602 7.50008 10.8333 7.87318 10.8333 8.33341C10.8333 8.79365 10.4602 9.16675 9.99992 9.16675C9.53968 9.16675 9.16658 8.79365 9.16658 8.33341Z" fill="#757575"/>
</svg>
