<svg width="20" height="20" viewBox="0 0 20 20" fill="none" xmlns="http://www.w3.org/2000/svg">
<path fill-rule="evenodd" clip-rule="evenodd" d="M3.33325 3.33325C1.95254 3.33325 0.833252 4.45254 0.833252 5.83325V14.1666C0.833252 15.5473 1.95254 16.6666 3.33325 16.6666H16.6666C18.0473 16.6666 19.1666 15.5473 19.1666 14.1666V5.83325C19.1666 4.45254 18.0473 3.33325 16.6666 3.33325H3.33325ZM2.49992 6.05564V14.1666C2.49992 14.6268 2.87301 14.9999 3.33325 14.9999H16.6666C17.1268 14.9999 17.4999 14.6268 17.4999 14.1666V6.0557L11.5348 10.6952C10.632 11.3974 9.36788 11.3974 8.46511 10.6952L2.49992 6.05564ZM16.1427 4.99992H3.85726L9.48834 9.37965C9.78926 9.6137 10.2106 9.6137 10.5116 9.37965L16.1427 4.99992Z" fill="#757575"/>
</svg>
