<svg width="30" height="30" viewBox="0 0 30 30" fill="none" xmlns="http://www.w3.org/2000/svg">
<path fill-rule="evenodd" clip-rule="evenodd" d="M22.1339 9.70957C22.622 9.22141 22.622 8.42996 22.1339 7.9418C21.6457 7.45364 20.8543 7.45364 20.3661 7.9418L15 13.3079L9.63388 7.9418C9.14573 7.45365 8.35427 7.45365 7.86612 7.9418C7.37796 8.42996 7.37796 9.22141 7.86612 9.70957L13.2322 15.0757L7.86612 20.4418C7.37796 20.93 7.37796 21.7214 7.86612 22.2096C8.35427 22.6977 9.14573 22.6977 9.63388 22.2096L15 16.8435L20.3661 22.2096C20.8543 22.6977 21.6457 22.6977 22.1339 22.2096C22.622 21.7214 22.622 20.93 22.1339 20.4418L16.7678 15.0757L22.1339 9.70957Z" fill="#F2851A"/>
</svg>
