<svg width="20" height="20" viewBox="0 0 20 20" fill="none" xmlns="http://www.w3.org/2000/svg">
<path d="M11.6672 4.16664C11.8619 4.16626 12.0506 4.23407 12.2005 4.3583C12.2849 4.42826 12.3546 4.51418 12.4057 4.61113C12.4569 4.70809 12.4884 4.81418 12.4984 4.92333C12.5085 5.03247 12.4969 5.14253 12.4644 5.2472C12.4319 5.35187 12.379 5.4491 12.3088 5.5333L8.57549 9.99997L12.1755 14.475C12.2447 14.5602 12.2964 14.6583 12.3276 14.7636C12.3588 14.8689 12.3689 14.9793 12.3572 15.0885C12.3456 15.1976 12.3126 15.3035 12.2599 15.3998C12.2073 15.4962 12.1361 15.5812 12.0505 15.65C11.9643 15.7258 11.8633 15.7831 11.7539 15.818C11.6445 15.853 11.5291 15.865 11.4148 15.8533C11.3006 15.8416 11.19 15.8063 11.09 15.7498C10.99 15.6933 10.9028 15.6168 10.8338 15.525L6.80882 10.525C6.68625 10.3759 6.61925 10.1888 6.61925 9.9958C6.61925 9.80278 6.68625 9.61575 6.80882 9.46663L10.9755 4.46664C11.0591 4.36579 11.1653 4.28607 11.2855 4.23394C11.4056 4.18182 11.5364 4.15876 11.6672 4.16664Z" fill="#323232"/>
</svg>
