<svg width="20" height="20" viewBox="0 0 20 20" fill="none" xmlns="http://www.w3.org/2000/svg">
<path d="M9.99992 15.8333C10.6903 15.8333 11.2499 15.2736 11.2499 14.5833C11.2499 13.8929 10.6903 13.3333 9.99992 13.3333C9.30956 13.3333 8.74992 13.8929 8.74992 14.5833C8.74992 15.2736 9.30956 15.8333 9.99992 15.8333Z" fill="#757575"/>
<path fill-rule="evenodd" clip-rule="evenodd" d="M5.83325 19.1666C4.45254 19.1666 3.33325 18.0473 3.33325 16.6666V3.33325C3.33325 1.95254 4.45254 0.833252 5.83325 0.833252H14.1666C15.5473 0.833252 16.6666 1.95254 16.6666 3.33325V16.6666C16.6666 18.0473 15.5473 19.1666 14.1666 19.1666H5.83325ZM4.99992 16.6666C4.99992 17.1268 5.37302 17.4999 5.83325 17.4999H14.1666C14.6268 17.4999 14.9999 17.1268 14.9999 16.6666L14.9999 3.33325C14.9999 2.87301 14.6268 2.49992 14.1666 2.49992L5.83325 2.49992C5.37301 2.49992 4.99992 2.87302 4.99992 3.33325L4.99992 16.6666Z" fill="#757575"/>
</svg>
