<svg width="106" height="106" viewBox="0 0 106 106" fill="none" xmlns="http://www.w3.org/2000/svg">
<path d="M85.5913 61.5555C85.1694 60.4244 84.7808 59.3092 84.0078 58.3682C83.7086 58.004 83.2945 57.6564 83.1832 57.1792C83.0461 56.5938 83.1972 55.83 83.1958 55.2311C83.1896 52.7397 82.8411 50.2648 81.8946 47.9428C81.0296 45.8205 80.1319 43.7189 78.6185 41.9521C77.7635 40.9538 76.9561 40.0524 75.8584 39.3183C75.6394 39.1717 75.4203 39.0177 75.1982 38.868C75.811 38.2003 76.1617 37.4498 76.6089 36.6283C77.2728 35.4079 78.401 34.5181 79.1732 33.379C80.0073 32.1494 80.7895 30.764 81.5101 29.463C82.1644 28.2823 82.8712 27.0782 83.4626 25.8729C83.6345 25.5228 83.725 25.0178 83.4626 24.6762C82.732 23.7253 81.8882 23.8471 80.8127 24.0212C79.4746 24.2377 78.0863 24.4976 76.7822 24.8758C75.9501 25.1172 74.8361 25.3155 73.7533 25.6277C73.9918 25.1884 74.2243 24.7535 74.4527 24.3297C75.8485 21.7393 76.8604 19.0187 77.3853 16.111C77.6561 14.61 77.767 13.084 78.0188 11.5809C78.195 10.5298 78.3974 9.04768 77.0927 8.61975C76.0636 8.28187 74.8036 8.76736 73.8018 8.96714C72.2911 9.26858 70.9692 9.84703 69.5473 10.4153C69.5096 10.4304 69.4734 10.447 69.4359 10.4621C69.2947 8.67088 69.2119 6.84818 68.8225 5.08594C68.6231 4.18328 68.1838 3.27028 67.8304 2.41317C67.5029 1.61879 67.0927 0.869549 66.423 0.314499C66.0478 0.00333156 65.5458 -0.119231 65.1023 0.144113C64.0707 0.75651 63.3954 1.71858 62.5598 2.57859C61.6393 3.52596 60.887 4.66567 60.0723 5.70144C59.2872 6.69995 58.5057 7.81792 57.9349 8.96342C57.6267 8.315 57.3029 7.68169 56.9718 7.06867C56.4424 6.0888 55.9543 4.66028 54.9905 3.9245C54.9593 3.87191 54.9295 3.81994 54.898 3.76715C54.0429 2.33864 52.8985 2.88893 51.9497 3.8392C50.8872 4.90334 50.099 6.21384 49.5139 7.63801C49.263 7.37259 48.9516 7.14527 48.6392 6.89704C47.6463 6.10764 46.7014 5.36212 45.6147 4.69424C43.6016 3.45661 41.4352 2.42062 39.3235 1.38609C38.4742 0.970165 37.7049 1.49623 37.5898 2.38067C37.4958 3.10403 37.4273 3.90503 37.4026 4.63565C37.3718 5.55176 37.6411 6.42481 37.5473 7.34547C37.3933 8.8568 37.2126 10.2959 37.5198 11.7443C35.1081 10.8747 32.5685 10.3903 30.0236 10.8428C29.6858 10.9029 29.2992 11.2743 29.2479 11.6186C29.0061 13.2392 29.3922 15.1553 29.7375 16.7426C30.1278 18.5353 30.6783 20.2329 31.3847 21.9258C32.2409 23.9783 33.5411 25.9366 35.0019 27.7161C33.9543 27.9529 32.8637 28.4777 32.0095 28.6649C30.9652 28.8937 30.018 29.2663 29.0431 29.7009C28.0465 30.1449 26.9902 30.4805 26.0199 30.9782C25.4551 31.2679 25.2808 32.0724 25.5952 32.5978C26.1708 33.5591 27.2946 34.0156 28.2813 34.456C29.0059 34.7793 29.7974 35.0375 30.5615 35.2536C31.2108 35.4373 31.7884 35.7472 32.4312 35.9315C33.8419 36.3358 35.3234 36.5051 36.7335 36.9171C36.76 36.925 36.7869 36.9327 36.8138 36.9407C35.4586 37.5204 34.2498 38.3216 33.1693 39.3332C31.7401 40.671 30.8739 42.3182 29.6553 43.7974C28.3947 45.3276 27.197 47.0035 26.2056 48.7169C25.7675 49.4738 25.2255 50.1986 24.886 51.0041C24.4584 52.0184 24.2645 53.0136 24.0562 54.0831C23.9378 54.6913 23.787 55.2973 23.6926 55.9021C23.5369 56.8995 23.0653 57.7887 22.6078 58.6837C21.7656 60.3309 21.2869 62.1975 20.7219 63.9564C20.0479 66.0551 19.6551 68.2759 19.5841 70.4832C19.5228 72.3954 19.8613 74.5802 20.7963 76.2575C21.266 77.1004 21.9287 77.896 22.1498 78.8506C22.4022 79.9394 22.4943 81.1457 22.6548 82.2567C23.2274 86.2145 24.1332 91.0219 27.0192 93.991C28.4477 95.4607 30.4563 96.0348 31.8863 97.5132C33.3132 98.9885 34.5733 100.391 36.3919 101.391C38.0583 102.307 39.6727 103.374 41.6124 103.622C43.7415 103.894 45.9342 103.639 48.0587 103.863C48.5274 103.913 49.0386 103.891 49.4928 103.997C49.9845 104.112 50.4118 104.437 50.8665 104.649C51.9196 105.139 53.0428 105.457 54.185 105.651C55.3089 105.842 56.3952 106.083 57.5347 105.971C58.6782 105.858 59.8017 105.773 60.9352 105.559C63.0792 105.154 65.1754 104.224 66.9254 102.919C67.7351 102.314 68.7109 101.577 69.3415 100.794C69.6622 100.397 69.8458 99.9535 70.2619 99.6336C70.6472 99.3375 71.0787 99.1833 71.4377 98.8343C71.4545 98.8179 71.4685 98.8007 71.4845 98.7842C71.884 98.567 72.2503 98.3063 72.5583 97.9653C73.3057 97.1387 73.8724 96.0768 74.738 95.3599C75.547 94.6897 76.3654 94.2669 77.095 93.4757C78.0103 92.4821 79.0322 91.5973 79.9541 90.6112C81.6642 88.7823 82.666 86.6803 83.0109 84.18C83.184 82.9246 83.2685 81.6952 83.1074 80.4336C82.93 79.0429 83.3488 77.9616 83.9016 76.7049C85.9348 72.0817 87.43 66.4861 85.5913 61.5555ZM77.4915 44.6326C77.7645 45.1242 77.9863 45.6646 78.2819 46.1422C78.3442 46.2433 78.4132 46.4051 78.5053 46.5105C78.5231 46.5911 78.55 46.6695 78.586 46.7455C78.904 47.8243 79.4922 48.7978 79.8055 49.8849C80.1522 51.089 80.4508 52.1881 80.5698 53.443C80.716 54.9847 80.4721 56.4364 80.787 57.7927C79.3976 58.1539 78.0964 58.9417 76.8795 59.6829C75.3261 60.629 73.8862 61.749 72.4136 62.8034C71.9281 62.1811 71.4358 61.5646 70.9112 60.9749C69.9655 59.912 69.0587 58.6796 68.3591 57.4256C67.5455 55.9673 67.023 54.386 66.5037 52.7989C66.3126 52.2146 66.1068 51.6418 65.8855 51.0799C67.9772 50.0657 69.9833 48.997 71.9486 47.7362C73.7316 46.5925 75.5951 45.5518 77.3265 44.3529C77.383 44.4448 77.4389 44.5377 77.4915 44.6326ZM46.7273 63.3287C48.8452 67.0018 51.7834 69.9696 54.3351 73.3146C54.7429 73.8494 55.1367 74.3994 55.5172 74.9601C53.9717 75.8954 52.3627 76.743 50.7551 77.5654C48.7303 78.6009 46.6041 79.3224 44.6129 80.4439C43.6488 80.987 42.7885 81.6648 41.8813 82.2943C41.2501 82.7324 40.5826 83.1223 39.9545 83.5653C39.6912 82.7045 39.4009 81.853 39.0117 81.0621C38.2407 79.4947 37.1855 77.9807 36.1161 76.6029C34.7955 74.9013 33.2136 73.3655 31.7515 71.7461C35.0069 68.8255 38.5459 66.1638 42.0966 63.6477C43.2206 62.8513 44.3618 62.0768 45.5164 61.3213C45.924 61.9863 46.3356 62.6496 46.7273 63.3287ZM42.1354 51.682C41.613 50.942 41.0838 50.1963 40.5352 49.4647C43.7378 47.8645 46.8935 45.6789 49.5779 43.3167C50.9656 42.0954 52.3875 41.1203 53.9388 40.1493C54.2481 39.9555 54.5481 39.7682 54.8491 39.5856C54.9276 39.6638 55.0075 39.7419 55.0885 39.8205C55.8323 40.5437 56.6482 41.2619 57.4339 41.9436C58.9719 43.2782 60.3 44.9715 61.4718 46.6258C62.2184 47.6798 62.85 48.8171 63.3937 49.9944C62.0196 50.6331 60.6425 51.2635 59.2533 51.8675C57.2242 52.7494 55.1559 53.5369 53.2388 54.6516C50.8768 56.0252 48.4854 57.4157 46.188 58.9268C44.8798 56.4849 43.7312 53.9423 42.1354 51.682ZM52.7594 68.2562C51.3159 66.6722 50.2261 64.8663 48.9001 63.1982C48.1887 62.3037 47.5676 61.3515 46.9938 60.37C48.8258 59.2119 50.6911 58.1053 52.5859 57.0569C56.3128 54.9953 60.3147 53.6367 64.18 51.8824C64.2297 52.0138 64.2808 52.1449 64.3287 52.2765C65.0338 54.2185 65.4713 56.1611 66.4426 57.9873C67.5968 60.1574 69.1136 62.1134 70.6899 64.0253C69.4106 65.0094 68.2707 66.1942 66.954 67.1035C65.1593 68.3428 63.4535 69.7069 61.6505 70.94C60.1818 71.9443 58.7299 72.9217 57.2463 73.8771C57.1223 73.6904 56.9981 73.504 56.8724 73.3158C55.6549 71.4938 54.2243 69.864 52.7594 68.2562ZM61.1006 73.6974C62.8778 72.3964 64.6758 71.0596 66.5019 69.8323C68.0451 68.7955 69.3875 67.5658 70.8499 66.4401C71.2251 66.1515 71.6008 65.8621 71.9772 65.5729C72.5873 66.3031 73.1943 67.0337 73.7809 67.7738C76.0673 70.6596 77.4946 74.105 79.3715 77.236C78.8045 77.5314 78.2629 77.879 77.85 78.1343C76.2865 79.1017 74.757 80.1932 73.3517 81.402C71.8406 82.702 70.1783 83.6237 68.4999 84.6847C67.1749 85.5222 65.8688 86.3269 64.4881 87.0695C64.1446 86.6095 63.8067 86.1431 63.4695 85.6719C62.0861 83.7388 61.2948 81.453 60.3516 79.2907C59.7731 77.9653 59.0875 76.7559 58.3432 75.5679C59.286 74.9713 60.2092 74.3502 61.1006 73.6974ZM75.5737 42.1298C75.8594 42.4399 76.1398 42.7544 76.4072 43.0784C74.9698 43.467 73.4376 44.6191 72.2766 45.2613C70.2408 46.3871 68.3432 47.6745 66.2304 48.667C65.8433 48.8487 65.4561 49.0303 65.069 49.2121C64.2599 47.5335 63.2807 45.9518 62.0811 44.4483C61.0443 43.1486 59.7794 41.7857 58.4751 40.7596C57.8014 40.2296 57.2238 39.5893 56.5085 39.1148C56.3942 39.0388 56.2638 38.9603 56.1288 38.8798C56.1754 38.857 56.219 38.8328 56.266 38.8104C57.3627 38.7591 58.4983 38.5734 59.6947 38.2146C60.8236 37.8761 62.0174 37.0486 63.0231 36.4252C63.7287 35.988 64.4355 35.6015 65.1288 35.175C65.1595 35.1704 65.1901 35.1661 65.2212 35.1601C68.4355 37.8856 72.6482 38.9529 75.5737 42.1298ZM76.3917 27.4095C77.4873 27.1122 78.5695 26.859 79.6879 26.6588C79.9791 26.6066 80.2723 26.5428 80.5655 26.4844C79.5999 28.4123 78.4639 30.3126 77.3008 32.0772C76.5814 33.1686 75.5603 34.0591 74.8307 35.1572C74.5415 35.5923 74.4413 36.1308 74.1643 36.5565C73.9245 36.925 73.5517 37.2993 73.2484 37.6749C72.1826 36.9635 71.0681 36.2888 69.8825 35.8422C69.0461 35.5271 68.2544 35.1238 67.3915 34.8816C67.1192 34.8052 66.8443 34.7479 66.5693 34.6932C67.584 34.305 68.6142 33.9661 69.6522 33.6419C70.4961 33.3784 71.3315 33.1544 72.0977 32.703C72.7985 32.2904 73.6904 32.0788 74.286 31.5151C74.4086 31.3989 74.4547 31.2095 74.4092 31.0486C74.3961 31.0023 74.3831 30.9561 74.3699 30.9097C74.3216 30.7383 74.1264 30.6128 73.9496 30.6712C73.314 30.8801 72.6722 30.9623 72.0555 31.2484C71.1882 31.6507 70.3868 32.0304 69.4682 32.3153C69.1169 32.4242 68.774 32.5362 68.4347 32.6513C68.9076 32.2362 69.3715 31.8111 69.8204 31.3664C70.6696 30.5246 71.4166 29.5288 72.096 28.4748C72.3733 28.3771 72.6438 28.2757 72.8937 28.2158C74.0564 27.9378 75.2377 27.7225 76.3917 27.4095ZM59.6168 9.75573C60.2839 8.79262 61.0046 7.82951 61.7383 6.91692C62.4554 6.02503 63.1386 5.04081 63.9338 4.22034C64.4158 3.72305 64.9268 3.08271 65.4775 2.57735C65.7004 2.95062 65.858 3.36572 65.9921 3.78744C66.2464 4.58679 66.613 5.24804 66.7544 6.07699C67.0277 7.67921 67.1308 9.29777 67.2699 10.913C67.2861 11.1014 67.3422 11.2629 67.4231 11.401C65.2282 12.5645 63.3125 14.0638 61.6215 15.8066C61.7486 15.0288 61.8526 14.2477 62.0172 13.5191C62.2337 12.5604 62.4902 11.6122 62.6991 10.6505C62.8523 9.94557 62.9374 8.69593 63.3515 8.09306C63.4734 7.91543 63.1983 7.70488 63.0533 7.86284C62.63 8.32494 62.4453 9.09447 62.2149 9.65469C61.8149 10.6273 61.5439 11.6548 61.1741 12.6411C60.811 13.6096 60.593 14.6108 60.2853 15.5961C60.2433 15.73 60.199 15.865 60.1537 16.0004C59.9404 14.3003 59.4554 12.6144 58.8194 10.9963C59.1073 10.6064 59.3334 10.1654 59.6168 9.75573ZM58.4109 24.305C59.2723 21.9596 60.9174 19.9356 62.4981 18.0347C64.0765 16.1364 65.9472 14.6191 68.1318 13.4645C70.3071 12.3148 72.5472 11.4381 74.9404 10.9105C75.27 10.8379 75.5874 10.7474 75.923 10.7074C75.989 10.6998 76.0549 10.6921 76.1211 10.6845C76.0385 10.9288 75.9464 11.377 75.9429 11.4056C75.9143 11.6441 75.8909 11.8757 75.8688 12.1167C75.7342 13.5721 75.6176 15.0162 75.2967 16.4459C74.2394 21.1579 71.8925 25.4565 68.962 29.2823C67.3774 31.3509 64.8949 33.1604 62.5929 34.3315C61.5424 34.8659 60.5187 35.4948 59.4798 36.0439C58.7305 36.4397 57.7084 36.6875 56.7292 36.8163C57.596 35.6739 58.4026 34.4833 59.281 33.3487C59.9744 32.4531 60.8213 31.7457 61.5184 30.8588C62.108 30.1083 62.6134 29.2938 63.1277 28.4916C64.2067 26.8086 65.4719 25.2261 66.6559 23.615C67.2022 22.8713 67.8049 22.09 68.2297 21.2714C68.5072 20.7364 68.9664 20.1244 68.9173 19.4994C68.8869 19.1141 68.4219 18.9831 68.2008 19.3054C67.9834 19.6228 67.6469 19.8183 67.4122 20.1193C67.1302 20.4808 66.9124 20.8797 66.6228 21.2399C66.0702 21.9275 65.5928 22.6618 65.0278 23.3415C63.7933 24.8267 62.567 26.3973 61.5252 28.0241C60.3957 29.7878 58.9322 31.1627 57.6765 32.82C57.1188 33.5558 56.5004 34.3346 55.9642 35.1545C55.9489 35.0189 55.9323 34.8839 55.9172 34.7479C55.7791 33.4893 56.1133 32.2175 56.3422 30.9774C56.5524 29.8381 56.7238 28.8079 57.1517 27.7312C57.3525 27.2264 57.4161 26.6931 57.6053 26.1851C57.8434 25.5456 58.1751 24.947 58.4109 24.305ZM49.7839 18.81C49.8468 16.5923 49.9684 14.3001 50.3582 12.1101C50.3603 12.1045 50.3615 12.0985 50.3634 12.0929C50.8168 10.7867 51.401 9.46298 52.0289 8.23322C52.4354 7.4376 52.9072 6.2273 53.6138 5.48406C54.074 6.27471 54.5996 7.02313 54.9477 7.87858C55.7712 9.90437 56.2532 12.0631 56.7147 14.1849C57.124 16.0673 57.5734 17.8755 57.8519 19.7613C57.6492 20.0733 57.5985 20.4826 57.7004 20.8437C57.4136 21.295 57.1329 21.7517 56.8646 22.219C56.1186 23.5167 55.5951 25.0549 55.1804 26.4896C54.9762 27.1954 54.6168 27.8159 54.4709 28.5454C54.3371 29.2135 54.2284 29.8957 54.1241 30.5735C54.0759 29.9286 53.9953 29.2868 53.9926 28.6365C53.9883 27.6413 54.0471 26.6461 53.9947 25.6513C53.9481 24.7688 53.7666 23.9181 53.8162 23.0295C53.8599 22.244 53.9968 21.4768 54.0347 20.6907C54.1156 19.0108 54.7201 17.4927 54.1852 15.8267C54.0608 15.4385 53.5235 15.4398 53.3983 15.8267C52.9142 17.3194 52.6258 19.1264 52.5674 20.6907C52.5382 21.4743 52.4068 22.2453 52.3681 23.0295C52.3238 23.9228 52.5095 24.7628 52.5678 25.6513C52.6331 26.6449 52.577 27.6419 52.5898 28.6365C52.6016 29.5485 52.7809 30.4323 52.8142 31.3379C52.8457 32.196 52.9976 33.014 53.06 33.8678C52.6109 33.0136 52.1937 32.1411 51.7855 31.2671C50.7895 29.1338 50.5779 26.8668 50.2193 24.5729C49.9294 22.7233 49.7307 20.6884 49.7839 18.81ZM39.8748 7.26908C39.9539 6.44095 39.7179 5.66231 39.7226 4.83957C39.7239 4.62281 39.7313 4.3928 39.7425 4.15782C40.0555 4.31123 40.3715 4.46278 40.7027 4.60749C41.6219 5.00913 42.5312 5.55321 43.4088 6.0389C45.0775 6.96247 46.7795 8.12018 48.1132 9.48493C48.2792 9.65449 48.532 9.78078 48.7877 9.81473C48.3303 11.5331 48.0937 13.3152 47.9763 14.9659C47.9438 15.4228 47.907 15.8863 47.8722 16.3532C47.8699 16.3503 47.8678 16.348 47.8656 16.3453C47.5488 15.9548 47.3554 15.5046 47.1138 15.0673C46.5076 13.9709 45.7679 12.8784 45.0191 11.8745C44.4179 11.0687 43.7593 10.2992 43.1927 9.47686C42.9606 9.14002 42.7302 8.67585 42.2633 8.87274C42.1939 8.90193 42.1645 8.97895 42.2194 9.0394C42.4625 9.30833 42.4432 9.87228 42.5633 10.2062C42.6888 10.5551 42.9014 10.8751 43.0933 11.1896C43.7123 12.2037 44.3086 13.2194 44.9123 14.2419C45.3383 14.9632 45.6758 15.74 46.0743 16.4743C46.0294 16.4418 45.9865 16.4078 45.9408 16.376C44.3785 15.2868 42.8633 14.1907 41.1542 13.3334C40.4905 13.0005 39.8096 12.6778 39.1154 12.3774C39.652 10.7424 39.7119 8.97667 39.8748 7.26908ZM33.7067 21.7869C33.0099 20.3046 32.4647 18.7955 32.0979 17.2043C31.8898 16.3012 31.7499 15.429 31.6292 14.5098C31.5606 13.9878 31.4147 13.4361 31.3727 12.8935C34.7208 12.6357 38.3357 14.2943 41.1356 15.8896C42.5378 16.6886 44.1096 17.6171 45.3071 18.7059C46.0596 19.3899 46.8103 20.2847 47.7995 20.6689C47.8119 20.8166 47.8221 20.965 47.8395 21.1114C47.8931 21.5639 47.9397 22.0157 47.9838 22.4672C47.9883 22.6119 47.9929 22.7575 47.9972 22.9011C48.0167 23.545 48.0952 24.1829 48.2043 24.8166C48.2693 25.5019 48.338 26.1876 48.4252 26.8749C48.7154 29.1597 49.3856 31.2209 50.3942 33.2802C50.6806 33.8647 51.0174 34.6566 51.4317 35.429C50.4578 34.4268 49.6847 33.1442 48.7974 32.0908C47.3438 30.3659 45.7955 28.6862 44.4046 26.9113C43.7769 26.1103 43.2649 25.2609 42.4981 24.5806C41.7875 23.9504 41.1478 23.2759 40.4559 22.6277C39.2407 21.4894 38.6423 19.5659 37.1556 18.7649C37.071 18.7193 36.9646 18.8135 37.0194 18.9011C37.5281 19.7172 37.7459 20.7315 38.144 21.6039C38.4626 22.302 38.9794 23.014 39.5102 23.5736C40.1617 24.2603 40.763 24.9715 41.4486 25.6304C42.2308 26.382 42.7714 27.3337 43.437 28.1846C44.8423 29.9814 46.353 31.6973 47.7678 33.4868C48.237 34.0804 48.7167 34.6744 49.1692 35.2824C48.8585 35.1814 48.5529 35.0692 48.2616 34.9292C47.6761 34.6485 47.1631 34.2696 46.5627 34.0129C45.1474 33.4078 43.7966 32.9388 42.6368 31.8869C41.5327 30.8857 40.3514 29.9644 39.2409 28.9643C38.1316 27.9655 36.978 26.7248 36.1277 25.4921C35.2915 24.2802 34.3346 23.1231 33.7067 21.7869ZM34.6042 33.9241C33.9773 33.7655 33.3382 33.7318 32.7368 33.4947C32.1546 33.2653 31.6029 33.0751 30.9959 32.9005C30.3332 32.7094 29.6597 32.472 29.0371 32.1848C30.3994 31.6207 31.8126 31.1555 33.2016 30.7282C34.1189 30.446 35.0267 30.0965 35.9244 29.757C36.0967 29.6918 36.3491 29.6228 36.6002 29.533C36.782 29.7267 36.9643 29.9185 37.1472 30.1062C37.8289 30.8056 38.5446 31.5047 39.2924 32.1741C39.286 32.1732 39.2802 32.1718 39.274 32.171C37.7229 31.9726 36.236 31.1416 34.6504 31.3952C34.5591 31.4097 34.5603 31.5627 34.6504 31.5782C36.2681 31.8606 37.7223 32.9618 39.244 33.4827C39.9748 33.7328 40.7288 34.0529 41.459 34.3382C41.6058 34.3957 41.742 34.4634 41.872 34.5346C41.1515 34.7481 40.4292 35.0342 39.7659 35.3338C39.4471 35.1543 39.0699 35.0389 38.669 34.9435C37.3078 34.6189 35.9584 34.2665 34.6042 33.9241ZM34.0282 41.4109C35.375 40.0346 36.926 38.8829 38.555 37.8635C40.1379 36.8726 41.6865 36.3557 43.4956 35.9696C45.1665 35.6128 45.8667 36.2544 47.4471 36.871C49.4974 37.6705 51.5865 38.4229 53.7804 38.7048C53.4881 38.8212 53.197 38.945 52.9088 39.0879C51.3956 39.8383 49.8938 40.6087 48.574 41.6875C45.6801 44.0533 42.6935 46.2304 39.4448 48.0717C38.8628 47.3637 38.2521 46.6817 37.5979 46.0462C36.5677 45.0452 35.4158 44.1034 34.5564 42.9469C34.2725 42.5649 34.0183 42.1335 33.6467 41.8467C33.7647 41.6995 33.8885 41.554 34.0282 41.4109ZM26.1849 56.39C26.323 54.7951 26.2122 52.9751 26.9173 51.4915C27.8554 49.5174 29.1013 47.867 30.4466 46.1652C31.0495 45.4025 31.8 44.7044 32.3244 43.8926C32.6215 43.4328 32.867 42.9889 33.1395 42.5602C33.4777 43.1022 33.7059 43.9071 34.0402 44.3618C34.6876 45.2421 35.5031 46.0066 36.2652 46.7842C36.8915 47.4231 37.5097 48.104 38.1028 48.8119C35.0611 50.4418 31.9097 51.995 29.1589 54.0839C28.4974 54.5864 27.9347 55.1758 27.3225 55.7321C26.9349 56.0845 26.5263 56.4033 26.1418 56.7488C26.1594 56.631 26.1741 56.512 26.1849 56.39ZM26.5085 58.3167C27.1256 57.6028 27.9289 57.0811 28.6272 56.4503C29.4162 55.7375 30.2025 55.094 31.1062 54.523C33.6777 52.8978 36.429 51.5054 39.1651 50.146C39.6636 50.8089 40.1336 51.4873 40.5582 52.1728C41.7056 54.0264 42.714 55.913 43.6208 57.9014C43.9421 58.6061 44.3065 59.2808 44.6899 59.9431C43.951 60.4588 43.2223 60.9872 42.5142 61.5385C40.7429 62.9179 38.9307 64.1729 37.1865 65.5851C35.3458 67.0755 33.5351 68.6049 31.6904 70.092C31.4211 70.3091 31.1542 70.5317 30.889 70.758C30.2835 70.0377 29.7141 69.293 29.2137 68.502C28.0889 66.7238 27.0633 64.7557 26.2983 62.7935C25.8472 61.6364 25.7913 60.4511 25.7112 59.2622C25.9762 58.9475 26.2379 58.6299 26.5085 58.3167ZM24.2469 77.4643C23.9195 76.6737 23.4264 75.9671 22.9925 75.2325C22.4519 74.3175 22.3252 73.4713 22.1366 72.4556C21.4329 68.6595 22.968 64.6677 24.4092 61.2112C24.4309 61.3296 24.4537 61.4451 24.4779 61.5536C24.8731 63.3171 25.5381 64.9352 26.3401 66.5577C27.2888 68.4765 28.4546 70.1671 29.7067 71.8064C28.4647 72.9444 27.271 74.1529 26.1308 75.3541C25.4926 76.0265 24.8201 76.7236 24.2543 77.4838C24.2516 77.4774 24.2493 77.4707 24.2469 77.4643ZM30.2031 93.6962C26.4983 91.689 25.5263 86.9548 25.1091 83.0486C24.9677 81.724 24.9458 80.2454 24.6667 78.8825C24.6882 78.8525 24.7083 78.8235 24.7309 78.7933C25.3114 78.013 26.046 77.2573 26.7085 76.5306C27.8916 75.2336 29.2108 74.0369 30.5209 72.8535C31.2965 73.8359 32.0927 74.8131 32.8825 75.8244C34.0696 77.3449 35.304 78.7647 36.3207 80.4168C37.2031 81.8507 37.7492 83.3982 38.2475 84.9878C35.3309 87.6148 32.6794 90.6035 30.6613 93.9599C30.511 93.8717 30.3621 93.7825 30.2031 93.6962ZM45.0528 100.804C42.9912 100.714 41.1418 101.043 39.1742 100.238C37.4838 99.5458 35.8317 98.5579 34.5597 97.2376C33.6102 96.2522 32.756 95.4168 31.7476 94.6777C34.0017 91.9612 36.1503 89.1469 38.8301 86.8176C39.2686 88.1146 39.7711 89.3934 40.2994 90.6561C40.9942 92.3163 41.9648 93.8688 42.6438 95.5288C43.3161 97.1718 44.6796 98.8115 45.9478 100.034C46.1484 100.227 46.4226 100.525 46.7395 100.847C46.1605 100.833 45.5899 100.827 45.0528 100.804ZM48.5483 99.6307C48.2403 99.3796 47.9289 99.1328 47.6488 98.8734C46.454 97.7637 45.2644 96.3279 44.564 94.8603C43.1595 91.9165 41.6604 89.0009 40.653 85.8857C40.606 85.74 40.5607 85.5921 40.5155 85.4447C41.836 84.4392 43.2173 83.5131 44.6143 82.6101C46.4785 81.405 48.5417 80.735 50.5286 79.8005C52.5703 78.8402 54.6108 77.7887 56.5855 76.6348C57.1176 77.5233 57.6105 78.4332 58.0498 79.3597C59.0432 81.4548 59.7972 83.6728 60.9598 85.6863C61.4331 86.5064 61.9977 87.297 62.5749 88.0602C59.6083 89.5514 56.5998 90.9824 54.0866 93.1966C52.0824 94.9619 49.8415 97.1428 48.5483 99.6307ZM69.2581 97.2985C68.8111 97.6128 68.3123 97.8426 67.9283 98.2962C67.3184 99.016 66.8039 99.593 66.0656 100.204C64.6508 101.373 63.061 102.298 61.2747 102.773C59.4309 103.263 57.4327 103.491 55.5539 103.197C54.6152 103.05 53.7001 102.892 52.7991 102.584C51.9397 102.29 51.2489 101.754 50.4189 101.413C50.2506 101.344 50.0775 101.284 49.9007 101.232C49.8402 101.044 49.7622 100.835 49.6361 100.661C51.4573 98.3202 53.2179 96.0068 55.5725 94.0858C57.9809 92.1211 60.8354 90.8108 63.6494 89.4899C64.0659 90.0576 64.4893 90.623 64.9862 91.1163C66.7499 92.8678 68.237 94.4752 69.2241 96.7989C69.2773 96.9242 69.346 97.02 69.4214 97.101C69.3636 97.1641 69.3086 97.2294 69.2581 97.2985ZM78.3875 88.4755C77.4043 89.4251 76.341 90.2847 75.359 91.2364C74.9355 91.6474 74.5618 92.0861 74.0709 92.4117C73.5637 92.7482 73.0155 93.0196 72.5805 93.4581C71.9695 94.0738 71.4718 94.7841 70.9445 95.4683C70.1605 93.7082 69.108 92.1681 67.7163 90.8257C66.9668 90.1025 66.2834 89.3355 65.634 88.5401C65.6891 88.5129 65.7447 88.4864 65.7994 88.4591C67.3519 87.6885 68.7748 86.7258 70.3007 85.9226C71.784 85.1416 73.2467 84.1903 74.5119 83.0906C75.8659 81.9134 77.3824 80.8031 78.9247 79.9123C79.469 79.5978 80.0319 79.3224 80.5433 78.9912C80.5762 79.022 80.6098 79.0506 80.6441 79.0761C80.6419 79.8713 80.777 80.6139 80.858 81.4994C81.0859 84.0015 80.1831 86.741 78.3875 88.4755ZM82.1437 74.6798C81.9149 75.236 81.6172 75.7675 81.3493 76.3091C81.2559 76.1609 81.1669 76.011 81.0888 75.8576C80.6441 74.9864 80.2342 74.0717 79.6866 73.2616C78.7666 71.9006 77.955 70.3785 77.1256 68.964C76.328 67.6034 75.3104 66.384 74.298 65.1808C74.0632 64.9019 73.8345 64.6176 73.608 64.3319C74.5013 63.6601 75.4042 62.9991 76.3244 62.3633C78.0235 61.1892 79.7796 60.3685 81.6087 59.5208C81.6739 59.6044 81.7379 59.688 81.8118 59.7706C85.4758 63.8688 84.027 70.1033 82.1437 74.6798Z" fill="#F2851A"/>
</svg>
