<svg width="60" height="60" viewBox="0 0 60 60" fill="none" xmlns="http://www.w3.org/2000/svg">
<path d="M47.709 44.5636L38.4271 47.6455C38.4271 47.6091 38.4362 47.5727 38.4362 47.5273C38.4362 45.9182 37.1271 44.6091 35.5181 44.6091H28.8635C28.2271 44.6091 27.6181 44.4091 27.109 44.0455L20.2181 39.0818C19.3908 38.4909 18.4181 38.1727 17.3999 38.1727H14.3362V39.9909H17.3999C18.0362 39.9909 18.6453 40.1909 19.1544 40.5545L26.0453 45.5182C26.8726 46.1091 27.8453 46.4273 28.8635 46.4273H35.5181C36.1271 46.4273 36.6181 46.9182 36.6181 47.5273C36.6181 47.7818 36.5544 48.6091 35.7635 48.6091L26.8999 48.6273V50.4455L35.7635 50.4273C36.3544 50.4273 36.8908 50.2455 37.3181 49.9273L48.2817 46.2818C48.9908 46.0455 49.7635 46.3545 50.109 47.0273C50.309 47.4182 50.3362 47.8636 50.1817 48.2727C50.0181 48.6818 49.709 49 49.2908 49.1545L28.8453 56.6364C28.1362 56.9 27.3453 56.8273 26.6908 56.4455L18.4726 51.6727C17.809 51.2818 17.0544 51.0818 16.2817 51.0818H14.3271V52.9H16.2817C16.7271 52.9 17.1726 53.0182 17.5635 53.2455L25.7817 58.0182C26.4544 58.4091 27.209 58.6091 27.9726 58.6091C28.4817 58.6091 28.9908 58.5182 29.4726 58.3455L49.9181 50.8545C50.8181 50.5273 51.5271 49.8182 51.8817 48.9273C52.2271 48.0364 52.1726 47.0364 51.7271 46.1818C50.9726 44.7273 49.2817 44.0455 47.709 44.5636Z" fill="#F2851A"/>
<path d="M1.36353 36.9273H11.1272V54.7546H1.36353V56.5727H12.9453V35.1091H1.36353V36.9273Z" fill="#F2851A"/>
<path d="M6.34546 49.5H8.16364V51.2273H6.34546V49.5Z" fill="#F2851A"/>
<path d="M54.6908 11.7364C52.518 11.7364 50.7453 13.5091 50.7453 15.6818C50.7453 16.7273 51.1635 17.6727 51.8271 18.3727C50.4817 19.6909 49.118 20.5909 47.7453 21.0636C44.9089 16.6273 40.2271 13.6636 34.9998 13.0091C34.4998 11.8 34.118 10.4909 33.8544 9.10909C35.518 8.64546 36.7453 7.13637 36.7453 5.32728C36.7453 3.15455 34.9726 1.38182 32.7998 1.38182C30.6271 1.38182 28.8544 3.15455 28.8544 5.32728C28.8544 7.12728 30.0726 8.63637 31.7271 9.10909C31.4635 10.4636 31.0726 11.7727 30.5544 13.0182C25.3362 13.6727 20.6544 16.6364 17.8089 21.0727C16.4362 20.6091 15.0635 19.7 13.718 18.3818C14.3817 17.6727 14.7998 16.7273 14.7998 15.6909C14.7998 13.5182 13.0271 11.7455 10.8544 11.7455C8.68166 11.7455 6.90894 13.5182 6.90894 15.6909C6.90894 17.8636 8.68166 19.6364 10.8544 19.6364C11.1998 19.6364 11.5362 19.5727 11.8544 19.4909L17.7089 33.6636H47.8362L53.6908 19.4909C54.0089 19.5727 54.3453 19.6364 54.6908 19.6364C56.8635 19.6364 58.6362 17.8636 58.6362 15.6909C58.6362 13.5091 56.8635 11.7364 54.6908 11.7364ZM8.71803 15.6818C8.71803 14.5091 9.67257 13.5545 10.8453 13.5545C12.018 13.5545 12.9726 14.5091 12.9726 15.6818C12.9726 16.8545 12.018 17.8091 10.8453 17.8091C9.67257 17.8091 8.71803 16.8545 8.71803 15.6818ZM45.8089 21.4545C43.2362 21.6182 40.5362 20.3455 37.7453 17.6364C37.0635 16.8 36.4726 15.9182 35.9544 15.0091C39.9271 15.8182 43.4635 18.1273 45.8089 21.4545ZM30.6635 5.32728C30.6635 4.15455 31.618 3.2 32.7908 3.2C33.9635 3.2 34.918 4.15455 34.918 5.32728C34.918 6.5 33.9635 7.45455 32.7908 7.45455C31.618 7.45455 30.6635 6.5 30.6635 5.32728ZM29.5817 15.0091C29.0726 15.9182 28.4817 16.7909 27.7908 17.6364C25.0089 20.3455 22.3089 21.6182 19.7362 21.4545C22.0817 18.1273 25.618 15.8182 29.5817 15.0091ZM46.618 31.8364H18.918L14.6453 21.5C15.7362 22.2364 16.8544 22.7364 17.9726 23.0091C21.5908 23.9545 25.3362 22.5636 29.0998 18.8909L29.1635 18.8182C30.3453 17.3727 31.3089 15.8273 32.018 14.2091C32.2998 13.5818 32.5453 12.9273 32.7726 12.2636C32.9907 12.9364 33.2362 13.5818 33.518 14.2C34.2271 15.8182 35.1908 17.3727 36.3726 18.8091L36.4362 18.8818C40.1998 22.5545 43.9453 23.9364 47.5453 23C48.6726 22.7273 49.7908 22.2182 50.8817 21.4818L46.618 31.8364ZM54.6908 17.8091C53.518 17.8091 52.5635 16.8545 52.5635 15.6818C52.5635 14.5091 53.518 13.5545 54.6908 13.5545C55.8635 13.5545 56.818 14.5091 56.818 15.6818C56.818 16.8545 55.8635 17.8091 54.6908 17.8091Z" fill="#F2851A"/>
<path d="M32.7725 19.6364C30.7089 19.6364 29.0361 21.3091 29.0361 23.3727V25.8364C29.0361 27.9 30.7089 29.5727 32.7725 29.5727C34.8361 29.5727 36.5089 27.9 36.5089 25.8364V23.3727C36.5089 21.3091 34.8361 19.6364 32.7725 19.6364ZM34.6907 25.8273C34.6907 26.8818 33.827 27.7455 32.7725 27.7455C31.7179 27.7455 30.8543 26.8818 30.8543 25.8273V23.3636C30.8543 22.3091 31.7179 21.4455 32.7725 21.4455C33.827 21.4455 34.6907 22.3091 34.6907 23.3636V25.8273Z" fill="#F2851A"/>
</svg>
