<svg width="56" height="56" viewBox="0 0 56 56" fill="none" xmlns="http://www.w3.org/2000/svg">
<path d="M50.6323 0.848488H30.9264C28.964 0.848488 27.3677 2.44483 27.3677 4.4072V15.0196C27.3677 16.7013 28.5399 18.1143 30.1099 18.4842V22.2072C30.1099 22.4999 30.2662 22.7702 30.5206 22.9153C30.6457 22.9878 30.7861 23.0237 30.9264 23.0237C31.0691 23.0237 31.2118 22.9862 31.3387 22.9121L38.7416 18.579H48.2003V37.9213H8.12906C7.67775 37.9213 7.31257 38.2865 7.31257 38.7378C7.31257 39.1891 7.67775 39.5543 8.12906 39.5543H48.2003V41.8676C48.2003 43.3594 46.9867 44.5731 45.4947 44.5731H6.14751C4.65562 44.5731 3.44118 43.3595 3.44118 41.8676V13.8428C3.44118 12.3509 4.65562 11.1372 6.14751 11.1372H21.8721C22.3234 11.1372 22.6886 10.772 22.6886 10.3207C22.6886 9.86941 22.3234 9.50422 21.8721 9.50422H6.14751C3.75453 9.50422 1.80811 11.4506 1.80811 13.8428V41.8678C1.80811 44.2599 3.75453 46.2064 6.14751 46.2064H19.1992V49.4853H17.551C15.6245 49.4853 14.0568 51.0521 14.0568 52.9786V54.335C14.0568 54.7863 14.422 55.1515 14.8733 55.1515H36.7681C37.2194 55.1515 37.5846 54.7863 37.5846 54.335V52.9786C37.5846 51.0521 36.0169 49.4853 34.0904 49.4853H32.443V48.5595C32.443 48.1082 32.0778 47.743 31.6265 47.743C31.1752 47.743 30.81 48.1082 30.81 48.5595V49.4853H20.8322V46.2064H45.4947C47.8869 46.2064 49.8333 44.2599 49.8333 41.8678V18.5793H50.6323C52.5947 18.5793 54.1919 16.9821 54.1919 15.0197V4.4072C54.1919 2.44483 52.5947 0.848488 50.6323 0.848488ZM35.9516 52.9786V53.5184H15.6899V52.9786C15.6899 51.9532 16.5247 51.1183 17.551 51.1183H34.0904C35.1166 51.1183 35.9516 51.9532 35.9516 52.9786ZM52.5588 15.0197C52.5588 16.0818 51.6944 16.9462 50.6323 16.9462H38.5199C38.3748 16.9462 38.2329 16.9845 38.1076 17.0579L31.7429 20.7833V17.7628C31.7429 17.3115 31.3777 16.9463 30.9264 16.9463C29.8643 16.9463 29.0007 16.0819 29.0007 15.0198V4.4072C29.0007 3.34507 29.8643 2.48148 30.9264 2.48148H50.6323C51.6944 2.48148 52.5588 3.34507 52.5588 4.4072V15.0197Z" fill="#F2851A"/>
<path d="M34.3425 6.78024C32.8617 6.78024 31.6577 7.98433 31.6577 9.46502C31.6577 10.9449 32.8618 12.149 34.3425 12.149C35.8224 12.149 37.0265 10.9449 37.0265 9.46502C37.0265 7.98433 35.8224 6.78024 34.3425 6.78024ZM34.3425 10.516C33.7628 10.516 33.2907 10.0448 33.2907 9.4651C33.2907 8.88542 33.7628 8.41332 34.3425 8.41332C34.9222 8.41332 35.3934 8.88533 35.3934 9.4651C35.3934 10.0448 34.9222 10.516 34.3425 10.516Z" fill="#F2851A"/>
<path d="M40.7797 6.78024C39.299 6.78024 38.095 7.98433 38.095 9.46502C38.095 10.9449 39.2991 12.149 40.7797 12.149C42.2597 12.149 43.4638 10.9449 43.4638 9.46502C43.4638 7.98433 42.2597 6.78024 40.7797 6.78024ZM40.7797 10.516C40.2001 10.516 39.728 10.0448 39.728 9.4651C39.728 8.88542 40.2001 8.41332 40.7797 8.41332C41.3594 8.41332 41.8307 8.88533 41.8307 9.4651C41.8307 10.0448 41.3594 10.516 40.7797 10.516Z" fill="#F2851A"/>
<path d="M47.217 6.78024C45.737 6.78024 44.533 7.98433 44.533 9.46502C44.533 10.9449 45.737 12.149 47.217 12.149C48.6977 12.149 49.9017 10.9449 49.9017 9.46502C49.9018 7.98433 48.6977 6.78024 47.217 6.78024ZM47.217 10.516C46.6373 10.516 46.166 10.0448 46.166 9.4651C46.166 8.88542 46.6373 8.41332 47.217 8.41332C47.7967 8.41332 48.2688 8.88533 48.2688 9.4651C48.2688 10.0448 47.7967 10.516 47.217 10.516Z" fill="#F2851A"/>
<path d="M28.3333 42.8805C28.7846 42.8805 29.1498 42.5153 29.1498 42.064C29.1498 41.6127 28.7846 41.2475 28.3333 41.2475H23.3089C22.8576 41.2475 22.4924 41.6127 22.4924 42.064C22.4924 42.5153 22.8576 42.8805 23.3089 42.8805H28.3333Z" fill="#F2851A"/>
</svg>
