<svg width="20" height="20" viewBox="0 0 20 20" fill="none" xmlns="http://www.w3.org/2000/svg">
<path fill-rule="evenodd" clip-rule="evenodd" d="M9.99987 1.66667C10.3319 1.66667 10.6323 1.86381 10.7644 2.16846L12.7002 6.63227L17.5763 7.08137C17.9083 7.11195 18.1902 7.33752 18.2928 7.65479C18.3954 7.97206 18.299 8.31995 18.0477 8.53915L14.3727 11.7452L15.4478 16.4822C15.5214 16.8066 15.3951 17.1436 15.1265 17.3397C14.8579 17.5358 14.4983 17.5534 14.2119 17.3845L9.99987 14.9009L5.78789 17.3845C5.5014 17.5534 5.14189 17.5358 4.87326 17.3397C4.60463 17.1436 4.47834 16.8066 4.55195 16.4822L5.62707 11.7452L1.95205 8.53915C1.70078 8.31995 1.60437 7.97206 1.70696 7.65479C1.80956 7.33752 2.0914 7.11195 2.42344 7.08137L7.29956 6.63227L9.23533 2.16846C9.36745 1.86381 9.66781 1.66667 9.99987 1.66667ZM9.99987 4.59455L8.63219 7.74835C8.51106 8.02767 8.24725 8.2187 7.94408 8.24662L4.51415 8.56253L7.09769 10.8164C7.32866 11.0179 7.43037 11.3299 7.36254 11.6288L6.60466 14.9681L9.5766 13.2156C9.83777 13.0616 10.162 13.0616 10.4231 13.2156L13.3951 14.9681L12.6372 11.6288C12.5694 11.3299 12.6711 11.0179 12.9021 10.8164L15.4856 8.56253L12.0557 8.24662C11.7525 8.2187 11.4887 8.02767 11.3675 7.74835L9.99987 4.59455Z" fill="#FF9D3F"/>
</svg>
