<svg width="22" height="22" viewBox="0 0 22 22" fill="none" xmlns="http://www.w3.org/2000/svg">
<path fill-rule="evenodd" clip-rule="evenodd" d="M11 10.0833C13.025 10.0833 14.6667 8.4417 14.6667 6.41666C14.6667 4.39161 13.025 2.74999 11 2.74999C8.97496 2.74999 7.33333 4.39161 7.33333 6.41666C7.33333 8.4417 8.97496 10.0833 11 10.0833ZM7.6135 12.9229C7.94775 12.864 8.29172 12.8333 8.64286 12.8333H13.3571C13.7083 12.8333 14.0522 12.864 14.3865 12.9229C17.1503 13.4098 19.25 15.8228 19.25 18.7262C19.25 20.028 18.1947 21.0833 16.8929 21.0833H5.10714C3.80533 21.0833 2.75 20.028 2.75 18.7262C2.75 15.8228 4.84972 13.4098 7.6135 12.9229ZM7.99886 11.0264C6.49439 10.045 5.5 8.34695 5.5 6.41666C5.5 3.37909 7.96243 0.916656 11 0.916656C14.0376 0.916656 16.5 3.37909 16.5 6.41666C16.5 8.34695 15.5056 10.045 14.0011 11.0264C13.7956 11.1605 13.5805 11.2813 13.3571 11.3874C12.6427 11.7268 11.8435 11.9167 11 11.9167C10.1565 11.9167 9.35727 11.7268 8.64286 11.3874C8.41949 11.2813 8.20442 11.1605 7.99886 11.0264ZM4.58333 18.7262C4.58333 19.0155 4.81785 19.25 5.10714 19.25H16.8929C17.1821 19.25 17.4167 19.0155 17.4167 18.7262C17.4167 16.4842 15.5992 14.6667 13.3571 14.6667H8.64286C6.40084 14.6667 4.58333 16.4842 4.58333 18.7262Z" fill="#323232"/>
</svg>
