<svg width="30" height="30" viewBox="0 0 30 30" fill="none" xmlns="http://www.w3.org/2000/svg">
<path fill-rule="evenodd" clip-rule="evenodd" d="M15 30C23.2843 30 30 23.2843 30 15C30 6.71572 23.2843 0 15 0C6.71572 0 0 6.71572 0 15C0 23.2843 6.71572 30 15 30Z" fill="#F2851A"/>
<path fill-rule="evenodd" clip-rule="evenodd" d="M21.4202 11.7641C21.4791 11.4848 21.3495 11.3282 21.0432 11.3282H19.5C19.1466 11.3282 19.017 11.4735 18.911 11.6859C18.911 11.6859 18.0767 13.3726 17.0615 14.4356C16.7357 14.7792 16.57 14.8826 16.3901 14.8826C16.2449 14.8826 16.178 14.7679 16.178 14.4579V11.7418C16.178 11.3618 16.1309 11.25 15.8011 11.25H13.3273C13.1387 11.25 13.0209 11.3539 13.0209 11.4958C13.0209 11.8537 13.5982 11.9345 13.5982 12.9042V14.905C13.5982 15.3074 13.5746 15.4639 13.3744 15.4639C12.8443 15.4639 11.5838 13.7314 10.877 11.7641C10.7357 11.3618 10.5825 11.25 10.1819 11.25H8.6388C8.41493 11.25 8.25 11.3953 8.25 11.6076C8.25 11.9988 8.733 13.8096 10.6296 16.2351C11.9018 17.867 13.5746 18.75 15.0824 18.75C16.0013 18.75 16.2251 18.6047 16.2251 18.2359V16.984C16.2251 16.671 16.3547 16.5369 16.5432 16.5369C16.7552 16.5369 17.1295 16.6015 18.004 17.4199C19.0406 18.3589 19.1113 18.75 19.6768 18.75H21.4084C21.5851 18.75 21.75 18.6718 21.75 18.3923C21.75 18.0235 21.2435 17.364 20.4659 16.5816C20.1479 16.1792 19.6296 15.7433 19.4647 15.5422C19.2291 15.3074 19.2998 15.1732 19.4647 14.9273C19.4647 14.9273 21.2435 12.5466 21.4202 11.7641Z" fill="#FBFBFB"/>
</svg>
